{"glyphs":{"0":{"ha":833,"x_min":0,"x_max":0,"o":""},"1":{"ha":833,"x_min":0,"x_max":0,"o":""},"2":{"ha":833,"x_min":0,"x_max":0,"o":""},"3":{"ha":833,"x_min":0,"x_max":0,"o":""},"4":{"ha":833,"x_min":0,"x_max":0,"o":""},"5":{"ha":833,"x_min":0,"x_max":0,"o":""},"6":{"ha":833,"x_min":0,"x_max":0,"o":""},"7":{"ha":833,"x_min":0,"x_max":0,"o":""},"8":{"ha":833,"x_min":0,"x_max":0,"o":""},"9":{"ha":833,"x_min":0,"x_max":0,"o":""}," ":{"ha":833,"x_min":0,"x_max":0,"o":""},"!":{"ha":833,"x_min":313,"x_max":525,"o":"m 349 854 l 489 854 q 515 842 504 854 q 525 814 525 831 l 508 251 q 498 222 508 235 q 472 210 488 210 l 363 210 q 338 222 349 210 q 326 251 326 235 l 313 814 q 323 842 313 831 q 349 854 333 854 m 422 789 q 394 774 404 792 q 396 742 385 756 q 429 733 413 725 q 442 744 436 736 q 447 760 449 751 q 422 789 442 786 m 429 269 q 447 297 450 278 q 422 325 442 322 q 394 310 404 328 q 396 278 385 293 q 429 269 411 264 m 508 156 q 510 129 510 153 l 510 74 q 497 11 510 22 q 443 0 486 0 l 361 0 q 325 35 328 3 q 325 58 325 46 q 325 86 325 71 q 325 110 325 101 q 333 168 325 158 q 381 182 344 182 q 408 182 390 182 q 442 182 426 182 q 469 182 457 182 q 508 156 494 182 m 444 100 q 419 128 439 125 q 392 113 401 131 q 394 81 382 96 q 426 72 407 65 q 444 100 447 81 z "},"#":{"ha":833,"x_min":72,"x_max":761,"o":"m 654 457 l 636 369 q 639 356 633 363 q 653 349 644 349 l 744 349 q 761 332 761 349 l 761 213 q 756 200 761 206 q 744 194 751 194 l 614 194 q 597 182 600 194 l 561 14 q 544 0 558 0 l 425 0 q 413 6 418 0 q 410 21 408 13 l 442 175 q 438 188 443 182 q 425 194 433 194 l 311 194 q 294 182 297 194 l 260 14 q 243 0 256 0 l 124 0 q 110 6 115 0 q 107 21 106 13 l 139 175 q 136 188 142 182 q 122 194 131 194 l 89 194 q 72 213 72 194 l 72 332 q 89 349 72 349 l 161 349 q 178 363 175 349 l 196 450 q 192 463 197 457 q 179 469 188 469 l 89 469 q 72 488 72 469 l 72 607 q 89 624 72 624 l 218 624 q 235 638 232 624 l 271 806 q 288 819 274 819 l 407 819 q 417 817 411 819 q 481 789 454 815 q 507 724 507 763 q 481 659 507 686 q 415 632 454 632 q 392 635 406 632 q 407 624 394 624 l 521 624 q 538 638 535 624 l 574 806 q 590 819 576 819 l 708 819 q 722 813 717 819 q 725 799 726 807 l 693 644 q 710 624 690 624 l 744 624 q 761 607 761 624 l 761 488 q 756 475 761 481 q 744 469 751 469 l 671 469 q 654 457 657 469 m 447 724 q 438 747 447 738 q 415 756 429 756 q 392 747 401 756 q 383 724 383 738 q 392 701 383 711 q 415 692 401 692 q 438 701 429 692 q 447 724 447 711 m 481 363 l 499 450 q 495 463 500 457 q 482 469 490 469 l 368 469 q 351 457 354 469 l 333 369 q 336 356 331 363 q 350 349 342 349 l 464 349 q 481 363 478 349 z "},"*":{"ha":833,"x_min":0,"x_max":0,"o":""},".":{"ha":833,"x_min":0,"x_max":0,"o":""},">":{"ha":833,"x_min":122,"x_max":715,"o":"m 122 293 q 124 338 122 324 q 151 426 128 372 q 203 497 168 457 q 353 582 265 567 q 532 564 450 600 q 667 449 618 528 q 710 276 715 364 q 642 107 701 176 q 494 11 585 36 q 315 18 411 -15 q 178 122 228 46 q 136 201 146 168 q 122 293 122 244 z "},"?":{"ha":833,"x_min":122,"x_max":699,"o":"m 696 644 l 696 643 q 696 586 699 622 q 651 475 693 528 q 581 401 640 461 l 564 388 q 549 374 560 382 q 521 347 529 357 q 499 300 503 328 q 494 243 494 272 q 483 215 494 226 q 454 201 471 203 l 429 201 l 406 201 l 381 201 l 374 201 q 331 218 343 201 q 322 267 322 231 l 322 279 q 329 340 322 308 q 386 450 344 404 q 458 517 414 481 l 471 528 q 519 621 529 578 q 490 668 513 647 q 442 694 468 689 q 415 697 433 697 q 340 671 367 697 q 311 622 324 656 q 304 593 304 596 l 304 592 q 293 563 297 568 q 260 549 281 549 l 243 549 q 217 551 226 551 q 190 555 208 553 q 163 558 172 557 q 125 593 126 564 q 132 647 122 610 q 135 658 135 656 q 193 767 153 722 q 297 835 233 811 q 413 854 351 854 q 544 829 483 854 q 646 756 603 806 q 696 644 686 707 m 440 779 q 419 810 443 804 q 389 798 400 814 q 388 765 378 782 q 418 754 399 750 q 440 779 433 757 m 435 276 q 413 307 439 299 q 383 294 394 311 q 382 263 371 278 q 413 250 393 244 q 435 276 428 254 m 497 156 q 499 129 499 153 l 499 74 q 488 11 499 22 q 432 0 475 0 l 350 0 q 314 35 317 3 q 314 58 314 46 q 314 86 314 71 q 314 110 314 101 q 322 168 314 158 q 371 182 333 182 l 414 183 q 458 182 458 183 q 497 156 483 182 m 433 100 q 408 128 428 125 q 381 113 390 131 q 383 81 371 96 q 415 72 396 65 q 433 100 436 81 z "},"A":{"ha":833,"x_min":26,"x_max":804,"o":"m 800 24 q 799 11 804 18 q 788 1 794 4 q 769 0 782 0 l 613 0 q 592 4 601 0 q 578 14 583 8 q 567 31 572 19 q 560 47 563 42 q 554 67 558 53 q 549 86 550 82 q 510 119 540 117 l 457 119 l 361 119 l 314 119 q 282 99 292 115 q 266 58 272 82 q 253 22 260 33 q 213 0 239 0 l 135 0 l 57 0 q 39 3 44 0 q 32 29 26 11 q 35 38 33 32 q 38 46 38 43 q 56 90 40 51 l 181 426 q 233 565 199 475 q 279 688 267 654 q 294 711 285 703 q 336 725 310 725 l 499 725 q 553 685 539 725 l 590 586 l 724 232 l 778 86 q 786 65 781 79 q 794 43 792 50 q 797 34 794 42 q 800 24 800 26 m 383 639 q 393 621 383 629 q 414 611 403 613 q 433 617 424 610 q 446 632 443 624 q 436 668 454 653 q 400 672 419 685 q 383 639 383 664 m 485 297 q 481 315 485 307 q 471 349 475 338 q 455 402 465 368 q 440 450 444 436 q 435 467 439 456 q 429 488 432 479 q 424 504 426 497 q 413 518 414 518 q 403 504 407 518 q 358 356 386 456 q 343 308 347 325 q 347 285 340 294 q 368 276 354 276 l 449 276 l 468 276 q 479 285 476 279 q 483 292 482 288 q 485 297 483 296 z "},"B":{"ha":833,"x_min":113,"x_max":775,"o":"m 771 219 q 767 161 775 196 q 707 60 753 97 q 657 25 679 35 q 600 11 647 21 q 356 0 536 0 l 175 0 l 142 0 q 113 35 115 3 l 113 118 l 113 297 l 113 651 l 113 688 q 126 717 115 707 q 160 725 135 725 l 224 725 l 419 725 l 474 726 q 528 725 528 728 q 649 697 613 719 q 729 599 717 656 q 724 475 749 526 q 689 426 711 449 l 678 415 l 665 408 q 653 401 664 407 q 640 392 643 396 q 651 376 632 381 q 679 365 664 372 q 728 329 714 347 q 771 219 771 279 m 383 651 q 389 629 378 644 q 408 617 397 618 q 444 631 431 611 q 443 668 457 650 q 408 681 429 688 q 383 651 382 672 m 326 474 q 342 447 326 457 q 367 442 349 442 l 439 442 q 490 454 467 442 q 517 497 511 465 q 508 547 521 526 q 467 574 494 569 q 418 576 436 576 l 375 576 q 353 575 360 576 q 326 539 329 568 l 326 474 m 546 238 q 513 289 550 271 q 449 303 489 303 l 371 303 q 329 281 336 303 q 326 257 326 274 l 326 208 q 346 163 326 174 q 369 160 354 160 l 417 160 q 475 161 465 160 q 529 183 515 167 q 546 238 546 203 z "},"C":{"ha":833,"x_min":42,"x_max":743,"o":"m 740 236 q 735 200 743 232 q 719 165 728 183 q 613 44 678 85 q 535 14 576 24 q 451 1 507 7 l 368 1 q 285 15 331 3 q 204 47 233 28 q 140 100 167 69 q 90 169 113 131 q 60 246 76 192 q 44 332 50 274 q 44 418 42 376 q 90 588 51 508 q 208 706 125 657 q 376 750 271 742 q 547 733 475 754 q 685 638 628 708 q 726 567 704 613 q 728 532 738 544 q 704 517 722 521 q 593 493 668 510 q 535 507 546 481 q 494 558 524 533 q 460 576 479 569 q 421 582 451 579 q 340 563 379 589 q 310 536 322 550 q 288 500 304 529 q 269 417 279 482 q 269 331 265 374 q 333 188 279 217 q 371 172 365 174 l 413 168 q 489 190 453 168 q 535 253 515 208 q 541 269 536 256 q 550 289 546 282 q 585 300 563 306 q 681 272 596 299 q 697 267 682 272 q 717 260 711 263 q 730 251 722 258 q 740 236 738 244 m 393 657 q 403 637 392 646 q 426 629 415 628 q 457 651 450 629 q 446 688 464 672 q 408 690 431 703 q 393 657 393 681 z "},"D":{"ha":833,"x_min":100,"x_max":771,"o":"m 767 397 q 767 338 771 368 q 763 276 763 278 q 751 217 761 249 q 732 164 743 182 q 701 115 708 122 q 621 42 668 72 q 506 6 592 24 q 410 0 481 0 l 239 0 l 160 0 l 128 0 q 100 58 100 6 l 100 368 l 100 671 l 100 692 q 129 726 103 719 l 164 726 l 246 726 l 413 726 q 507 721 464 726 q 621 685 568 714 q 645 667 629 679 q 665 651 661 654 q 701 610 672 647 q 731 558 719 588 q 733 551 731 556 q 738 546 736 547 l 742 533 q 746 519 743 529 q 750 506 749 510 q 767 397 767 436 m 385 643 q 392 622 383 632 q 413 610 401 613 q 446 625 432 606 q 451 643 451 631 q 444 663 451 651 q 407 675 432 682 q 391 662 399 672 q 385 643 383 651 m 543 365 q 542 379 543 369 q 542 394 542 389 q 519 499 536 467 q 431 557 492 547 q 379 563 415 560 q 338 556 347 563 q 327 540 331 550 q 324 522 324 529 q 324 499 324 514 q 325 481 325 485 l 325 203 q 336 171 325 181 q 351 164 343 165 q 372 164 358 163 q 389 165 386 165 q 485 185 453 165 q 535 264 517 201 q 542 311 539 279 q 543 365 543 329 z "},"E":{"ha":833,"x_min":129,"x_max":733,"o":"m 732 14 l 732 13 q 731 10 731 11 l 731 8 l 729 8 l 725 4 l 725 3 l 724 1 l 721 1 l 719 0 l 144 0 l 142 1 l 140 1 l 138 3 l 136 3 l 129 10 l 129 707 l 136 714 l 139 715 l 140 717 l 147 717 l 321 717 l 611 717 l 696 717 l 710 717 q 724 697 724 715 q 724 659 724 683 q 724 615 724 635 q 724 578 724 594 q 723 574 724 576 q 722 571 722 572 q 711 556 719 563 l 710 554 l 708 554 l 707 553 l 704 551 l 700 551 l 688 551 l 422 551 l 376 551 l 361 551 q 357 550 358 551 q 350 519 347 546 q 351 467 350 475 q 371 450 356 453 l 400 450 l 536 450 l 661 450 l 682 450 q 696 429 696 449 l 696 365 q 697 351 696 360 q 697 334 697 342 q 696 321 697 326 q 692 311 696 315 l 692 310 l 689 307 l 686 306 l 683 306 l 681 304 l 676 304 l 647 304 l 386 304 l 365 304 q 360 301 363 304 q 351 282 351 294 l 351 217 l 351 190 q 354 181 351 189 q 364 171 358 172 q 372 169 367 169 l 407 169 l 543 169 l 679 169 l 719 169 l 721 169 q 724 168 722 168 q 732 160 731 167 q 733 126 733 158 l 733 56 q 732 14 733 18 m 393 657 l 392 654 l 390 653 q 388 639 388 649 q 394 619 386 628 q 414 608 403 611 l 428 608 l 431 611 l 436 614 l 442 619 l 443 621 l 443 624 l 444 628 l 446 631 l 447 635 l 447 642 l 446 646 l 444 649 l 443 653 l 443 654 l 442 657 l 436 663 l 433 664 l 431 667 l 426 668 l 424 668 q 394 658 404 671 l 393 657 z "},"F":{"ha":833,"x_min":136,"x_max":694,"o":"m 693 713 q 694 689 694 711 l 694 638 l 694 590 q 689 568 694 574 q 646 557 681 557 l 439 557 q 423 557 433 557 q 404 557 413 557 q 389 557 396 557 q 364 536 369 553 l 364 499 q 365 464 364 467 q 390 446 369 449 l 446 446 l 644 446 l 660 446 q 682 424 679 443 l 682 392 l 682 339 q 678 314 682 319 q 654 299 671 300 l 593 299 l 397 299 l 381 299 q 364 272 364 292 l 364 190 l 364 26 q 333 0 364 6 l 300 0 l 244 0 l 190 0 l 164 0 q 136 31 136 4 l 136 146 l 136 363 l 136 581 l 136 700 q 161 731 136 728 l 194 731 l 386 731 l 600 731 l 660 731 q 693 713 683 731 m 449 649 q 442 672 450 661 q 422 685 433 682 q 388 669 400 689 q 389 631 375 649 q 425 619 401 614 q 442 631 435 624 q 447 640 444 633 q 449 649 447 647 z "},"G":{"ha":833,"x_min":57,"x_max":772,"o":"m 771 400 q 772 372 772 397 l 772 311 l 772 171 q 751 103 772 124 q 710 75 744 96 q 665 51 686 61 q 621 31 631 35 q 574 17 610 26 q 476 1 549 8 q 375 3 435 -1 q 192 65 263 10 q 82 229 110 132 q 63 328 67 283 q 63 429 57 389 q 83 528 69 481 q 132 619 100 576 q 201 689 157 657 q 293 733 239 715 q 390 749 333 746 q 493 749 458 751 q 593 735 560 743 q 638 717 619 728 q 678 690 665 703 q 736 617 714 656 q 732 539 771 547 l 615 518 q 579 513 589 511 q 543 535 557 514 q 472 586 515 576 q 379 583 424 597 q 307 521 336 569 q 279 425 286 485 q 304 232 268 301 q 374 171 326 188 q 474 161 421 154 q 515 172 488 164 q 527 177 519 174 q 536 182 535 181 q 557 192 547 185 q 582 228 576 204 q 569 269 588 253 q 526 275 561 275 l 471 275 q 439 301 443 278 l 439 354 q 440 401 439 397 q 472 426 444 424 l 571 426 l 714 426 l 740 426 q 762 417 751 425 q 771 400 772 410 m 406 693 q 383 661 381 683 q 391 640 382 650 q 411 628 400 631 q 445 644 433 624 q 443 682 457 665 q 406 693 426 701 z "},"H":{"ha":833,"x_min":75,"x_max":769,"o":"m 768 700 q 769 683 769 697 l 769 654 l 769 382 l 769 93 l 769 36 q 753 6 769 14 q 717 0 743 0 l 582 0 q 550 17 558 3 q 544 49 544 25 l 544 192 l 544 251 q 539 281 544 272 q 506 294 528 294 l 446 294 l 332 294 q 315 290 322 294 q 305 278 308 285 q 300 261 301 272 q 298 243 299 250 q 298 224 297 236 q 299 208 299 211 l 299 103 l 299 49 q 285 7 299 17 q 250 0 275 0 l 176 0 l 114 0 q 83 15 92 3 q 75 64 75 25 l 75 326 l 75 622 l 75 690 q 119 728 75 728 l 257 728 q 289 718 278 728 q 299 696 299 708 q 299 683 299 693 q 300 674 299 674 l 324 674 q 344 685 326 675 q 371 704 350 689 q 415 715 389 715 q 442 711 429 715 q 482 686 465 706 q 503 642 499 667 q 497 590 508 615 q 463 550 485 564 q 379 544 417 525 q 357 558 365 550 q 335 574 340 572 q 318 575 329 575 l 300 575 l 300 572 q 299 569 300 571 l 299 507 q 361 472 300 472 l 503 472 q 533 482 524 472 q 544 514 544 493 l 544 656 q 544 669 544 658 q 544 684 544 679 q 546 697 544 689 q 550 710 547 706 q 558 720 553 715 q 572 726 564 725 q 613 728 578 728 l 692 728 l 736 728 q 758 719 747 726 q 768 700 769 711 m 381 626 q 389 606 379 615 q 410 593 399 596 q 443 608 429 589 q 440 647 456 626 q 403 657 426 665 q 381 626 379 649 z "},"I":{"ha":833,"x_min":215,"x_max":614,"o":"m 613 703 q 614 685 614 700 l 614 649 l 614 578 q 583 546 611 549 l 554 546 l 528 546 l 528 535 l 528 513 l 528 196 l 528 183 q 544 182 528 182 q 603 174 593 182 q 614 131 614 164 l 614 46 q 600 7 614 18 q 585 0 594 1 q 562 0 576 -1 q 546 1 547 1 l 419 1 l 294 1 l 256 1 q 236 3 239 1 q 217 42 217 11 l 217 125 q 224 169 217 161 q 278 182 235 182 l 301 182 l 301 193 l 301 507 l 301 532 l 301 544 q 283 546 300 546 l 250 546 q 226 554 236 546 q 217 576 217 563 q 217 608 215 576 l 217 639 l 217 699 q 228 719 218 711 q 251 726 239 726 l 368 726 l 499 726 l 575 726 q 594 724 588 726 q 613 703 611 714 m 449 635 q 440 656 450 646 q 418 667 431 665 q 385 646 394 667 q 392 610 376 625 q 428 603 407 594 q 449 635 450 613 z "},"J":{"ha":833,"x_min":94,"x_max":678,"o":"m 676 696 q 678 674 678 689 l 678 393 q 669 215 678 304 q 639 118 663 164 q 568 44 617 78 q 375 0 506 0 q 178 53 244 0 q 115 133 135 88 q 103 181 107 157 q 100 199 103 185 q 97 222 97 214 q 118 261 94 253 q 161 269 126 267 q 238 279 211 275 q 274 279 264 282 q 299 240 292 271 q 310 203 306 210 q 342 174 322 181 q 386 171 356 168 q 429 189 411 174 q 450 229 444 201 q 456 308 456 256 l 456 550 q 425 544 432 543 q 400 550 411 547 q 351 588 372 558 q 337 644 335 613 q 360 699 339 676 q 464 722 403 746 q 472 724 469 721 l 482 728 q 497 731 493 731 l 575 731 l 606 731 q 638 731 638 732 q 665 719 651 729 q 676 696 678 710 m 461 633 q 454 657 465 642 q 436 669 447 665 q 402 655 415 674 q 403 618 389 636 q 436 606 415 601 q 453 616 444 607 q 461 633 463 625 z "},"K":{"ha":833,"x_min":117,"x_max":804,"o":"m 800 22 q 797 7 804 17 q 782 1 792 1 l 760 1 l 642 1 q 574 4 582 1 q 543 26 551 13 q 533 48 539 33 q 526 65 528 63 q 492 146 519 81 q 461 217 472 193 q 438 271 454 235 q 425 294 432 289 q 393 289 411 308 q 361 254 371 267 q 344 226 347 239 q 342 193 342 215 l 342 122 l 342 60 l 342 32 q 321 4 340 14 q 296 1 313 1 l 182 1 q 169 1 179 1 q 155 1 160 0 q 142 3 150 1 q 130 8 135 4 q 122 18 125 11 q 117 53 117 26 l 117 229 l 117 481 l 117 668 q 118 699 117 689 q 142 725 124 721 q 168 726 146 726 l 283 726 l 310 726 q 339 708 328 726 q 341 703 340 707 q 343 699 342 700 q 349 697 344 697 q 358 703 351 699 l 364 708 q 400 722 390 719 q 469 704 442 732 q 492 675 481 693 q 505 668 496 669 q 519 671 514 667 q 531 687 525 675 q 542 703 538 699 q 574 722 553 718 q 647 726 588 726 l 749 726 q 775 713 771 726 q 767 686 778 701 l 722 625 l 606 463 q 594 439 596 451 q 600 408 592 422 l 624 363 q 678 258 642 328 q 733 151 715 188 q 753 111 740 138 q 778 63 767 85 q 800 22 789 42 m 446 646 q 437 665 447 657 q 415 674 426 674 q 383 654 392 674 q 392 618 375 632 q 429 613 408 603 q 446 646 446 622 m 426 551 q 403 560 426 556 q 368 569 378 563 q 343 574 347 586 q 343 566 343 571 q 343 555 343 561 q 343 546 343 549 q 342 518 343 538 q 342 489 342 499 q 343 461 342 465 q 351 451 344 451 q 364 458 358 450 q 385 486 371 467 q 415 528 404 514 q 426 551 426 544 z "},"L":{"ha":833,"x_min":203,"x_max":775,"o":"m 772 150 q 774 129 774 143 l 774 85 q 774 68 774 82 q 774 48 775 54 q 772 31 774 42 q 766 15 769 19 q 755 5 763 10 q 736 0 747 0 l 631 0 l 274 0 l 239 0 q 206 22 214 0 q 203 46 203 29 l 203 90 l 203 451 l 203 690 q 238 725 203 722 q 269 725 238 726 l 300 725 l 383 725 q 396 724 392 725 q 406 721 400 724 q 409 718 407 719 q 413 715 411 717 q 419 713 414 714 q 425 713 424 713 q 443 708 426 713 q 490 669 469 700 q 501 611 506 644 q 474 560 496 578 q 450 543 464 550 q 438 540 447 542 q 426 536 429 538 q 424 510 424 533 l 424 332 l 424 253 q 425 217 424 219 q 460 196 433 196 l 521 196 l 700 196 q 738 193 729 196 q 772 150 772 182 m 381 624 q 388 603 379 613 q 408 592 397 594 q 441 608 429 589 q 439 644 453 626 q 404 656 424 663 q 387 644 394 654 q 381 624 379 635 z "},"M":{"ha":833,"x_min":31,"x_max":801,"o":"m 800 697 q 801 683 801 693 l 801 653 l 801 392 l 801 106 l 801 38 q 794 15 799 22 q 763 1 783 1 l 642 1 q 611 24 619 1 q 608 49 608 32 l 608 317 l 608 342 q 606 351 608 347 q 597 353 603 354 q 585 340 593 353 q 576 315 579 333 l 556 253 q 535 187 549 231 q 514 121 521 143 q 504 94 507 100 q 465 68 493 74 l 414 68 q 365 69 381 68 q 326 97 340 71 q 317 124 324 103 l 275 256 q 253 321 264 285 l 244 350 q 231 354 239 358 q 222 342 222 350 l 222 314 l 222 174 l 222 47 q 219 22 222 31 q 188 1 211 1 l 65 1 q 31 39 31 1 l 31 243 l 31 549 l 31 657 q 32 703 31 699 q 40 718 35 713 q 56 725 46 724 q 72 727 65 726 q 90 727 78 728 q 106 726 103 726 l 242 726 q 272 718 261 726 q 286 701 282 713 q 289 695 288 699 q 292 688 290 692 q 294 681 293 683 q 299 667 296 678 q 305 648 301 656 q 314 639 308 640 q 328 647 324 635 q 333 657 329 650 q 339 668 336 664 q 419 711 371 713 q 497 660 472 707 l 497 658 q 518 639 508 632 q 521 644 519 640 q 524 652 522 647 q 526 658 525 657 q 531 672 528 661 q 536 690 535 683 q 564 722 543 714 q 596 728 575 728 q 736 726 643 726 l 771 726 q 792 717 782 725 q 800 697 801 708 m 383 614 q 394 594 383 603 q 414 585 404 585 q 445 606 436 585 q 438 642 454 628 q 400 646 419 658 q 383 614 383 638 m 492 549 q 480 551 488 556 q 467 542 472 547 q 400 526 433 521 q 367 540 390 529 l 351 551 q 347 557 350 553 q 344 558 346 558 l 342 558 q 339 547 338 556 q 340 542 339 546 q 342 536 340 538 l 363 475 q 404 349 376 432 q 414 324 408 326 q 419 324 417 322 q 422 330 421 326 q 424 336 424 333 q 426 342 425 339 l 464 463 q 473 490 467 469 q 483 522 479 511 q 492 549 492 544 z "},"N":{"ha":833,"x_min":68,"x_max":764,"o":"m 763 699 q 764 675 764 696 l 764 326 l 764 35 q 755 11 764 21 q 733 0 746 1 l 671 0 l 571 0 q 522 7 535 0 q 497 29 506 17 q 483 50 492 36 q 443 117 456 94 q 374 232 382 217 l 319 319 q 301 349 308 339 q 288 363 294 363 q 281 329 281 363 l 281 247 l 281 56 q 275 15 281 25 q 226 0 267 0 l 128 0 q 79 11 88 0 q 69 42 69 22 l 69 88 l 69 478 l 69 646 q 69 664 69 647 q 69 688 68 681 q 74 706 69 694 q 86 721 78 717 q 139 726 96 726 l 242 726 q 294 724 283 726 q 344 681 324 715 q 356 690 349 688 q 399 711 381 710 q 442 710 417 715 q 486 680 467 703 q 507 631 506 657 q 458 539 511 568 q 453 535 457 538 q 447 533 449 533 q 443 530 446 532 q 442 525 440 528 q 443 518 443 522 q 459 491 447 508 q 474 468 471 474 q 518 394 513 404 q 542 361 535 365 q 551 382 551 364 l 551 436 l 551 610 l 551 675 q 554 706 551 699 q 592 726 564 726 l 667 726 l 729 726 q 749 719 739 726 q 763 699 763 711 m 438 597 q 442 640 458 618 q 407 651 428 658 q 383 624 386 644 q 401 592 381 601 q 438 597 422 582 z "},"O":{"ha":833,"x_min":28,"x_max":789,"o":"m 788 428 q 789 371 789 408 q 732 144 789 232 q 551 17 664 43 q 436 0 485 0 q 319 8 367 0 q 263 21 293 13 q 208 44 244 28 q 119 118 163 64 q 63 218 85 161 q 40 335 46 264 q 81 572 28 472 q 151 664 108 625 q 254 725 190 699 q 492 744 357 764 q 699 646 629 725 l 721 621 q 729 608 724 617 q 736 597 735 600 q 763 543 756 568 q 779 488 774 515 q 788 428 786 458 m 378 660 q 385 640 376 649 q 406 628 394 631 q 440 643 425 622 q 444 661 444 649 q 438 679 444 672 q 422 692 433 688 q 401 692 411 696 q 384 679 392 689 q 378 660 376 669 m 567 383 q 566 397 567 389 q 565 411 565 406 q 536 519 563 472 q 442 578 507 568 q 333 558 378 588 q 271 465 288 529 q 263 350 257 417 q 288 239 268 276 q 375 172 319 182 q 486 183 440 160 q 553 269 535 207 q 567 383 560 290 z "},"P":{"ha":833,"x_min":147,"x_max":764,"o":"m 763 517 q 760 461 764 507 q 746 403 758 438 q 717 353 736 382 q 625 289 690 313 q 511 269 576 272 l 444 269 q 390 265 397 269 q 372 224 372 256 l 372 165 l 372 90 q 373 73 372 85 q 374 51 374 61 q 372 33 374 42 q 356 6 371 15 q 311 0 346 0 l 225 0 q 209 0 219 0 q 191 0 199 0 q 176 0 183 0 q 147 35 147 6 l 147 53 l 147 169 l 147 526 l 147 658 q 158 718 147 708 q 192 726 169 726 l 250 726 l 428 726 q 469 727 435 726 q 517 727 504 728 q 557 724 531 726 q 603 717 583 722 q 643 706 624 713 q 731 632 700 685 q 763 517 763 579 m 388 649 q 396 628 386 638 q 417 615 406 618 q 450 633 439 613 q 447 671 461 654 q 410 681 431 690 q 394 667 401 678 q 388 649 386 657 m 544 503 q 517 558 546 533 q 460 578 496 575 q 408 579 439 583 q 374 550 378 575 q 372 485 372 540 q 378 431 372 439 q 399 417 388 418 l 428 417 q 483 422 460 417 q 531 453 513 429 q 544 503 544 472 z "},"Q":{"ha":833,"x_min":36,"x_max":808,"o":"m 803 114 q 799 93 808 106 q 779 58 790 75 q 744 6 756 14 q 731 0 739 0 q 718 3 724 0 q 704 11 713 6 q 693 18 696 17 q 642 53 675 28 q 590 75 608 75 q 575 72 585 75 q 561 68 565 68 q 526 58 553 65 q 464 51 504 54 q 338 56 400 47 q 110 183 194 74 q 39 431 36 282 q 115 676 44 589 q 218 761 161 732 q 346 800 276 789 q 478 801 407 808 q 543 790 525 794 q 604 768 568 783 q 709 693 664 744 q 774 579 754 642 q 796 447 793 517 q 785 313 796 364 q 735 193 767 242 q 732 168 725 178 q 756 150 740 158 q 783 135 779 136 q 803 114 796 128 m 379 707 q 388 686 378 696 q 408 675 397 676 q 442 693 432 672 q 436 731 453 714 q 399 738 421 746 q 379 707 378 729 m 569 419 l 569 454 q 560 525 569 483 q 528 586 550 567 q 503 610 508 606 q 472 624 490 618 q 403 633 431 636 q 290 560 325 625 q 269 492 274 529 q 265 422 264 444 q 267 389 267 413 q 271 353 268 365 q 293 285 283 301 q 401 218 326 228 l 428 218 q 449 222 444 218 q 438 240 456 232 q 411 260 432 244 q 385 303 374 282 l 410 347 q 426 368 418 365 q 453 363 435 372 l 483 342 q 511 324 503 331 q 524 315 514 322 q 539 306 533 307 q 552 313 547 304 q 560 335 557 321 q 564 351 564 350 q 569 419 569 374 z "},"R":{"ha":833,"x_min":78,"x_max":779,"o":"m 776 26 q 776 10 779 21 q 761 1 774 4 l 740 1 l 625 1 q 557 4 565 1 q 515 43 532 13 q 463 140 465 135 q 419 221 440 186 q 382 274 393 263 q 319 296 361 296 q 304 283 308 296 q 303 258 303 275 l 303 54 l 303 33 q 286 6 301 17 q 260 1 278 1 l 211 1 l 113 1 q 88 10 97 1 q 78 35 78 19 l 78 160 l 78 403 l 78 622 l 78 683 q 90 719 78 711 q 139 726 99 726 l 243 726 l 446 726 q 585 715 532 726 q 656 686 629 706 q 706 631 682 668 q 729 486 743 568 q 704 418 721 442 q 654 363 679 381 q 624 343 635 349 q 606 336 618 340 q 589 329 594 332 q 582 313 565 321 l 611 297 q 625 286 618 293 q 637 274 632 279 q 649 259 642 268 q 660 246 657 250 q 670 232 663 242 q 681 215 678 222 q 683 209 682 213 q 687 201 685 206 q 690 196 689 197 l 743 93 q 767 47 760 63 q 776 26 775 33 m 386 651 q 394 631 385 640 q 415 619 404 621 q 447 638 436 618 q 443 674 457 657 q 407 682 428 692 q 386 651 383 674 m 507 507 q 476 561 508 539 q 413 574 456 574 l 340 574 q 303 547 307 574 l 303 522 l 303 474 q 304 451 303 458 q 322 431 308 438 q 346 426 331 426 l 392 426 q 442 431 417 426 q 490 457 471 436 q 507 507 507 475 z "},"S":{"ha":833,"x_min":83,"x_max":744,"o":"m 740 274 q 729 178 744 226 q 683 94 714 132 q 647 61 678 89 q 607 36 643 57 q 561 18 582 24 q 513 7 524 8 q 417 0 460 0 q 315 8 382 0 q 222 36 268 14 q 99 182 138 74 q 88 231 89 218 q 103 265 83 254 q 138 269 110 269 l 208 274 q 235 274 218 274 q 261 275 253 275 q 294 264 281 278 q 304 243 299 258 q 313 224 311 226 q 340 189 322 203 q 429 160 375 160 q 508 189 481 160 q 522 229 524 207 q 504 269 521 251 q 419 310 488 289 q 364 324 400 315 q 322 335 328 333 q 229 365 272 349 q 152 426 183 385 q 117 515 121 467 q 174 678 110 614 q 343 751 229 733 q 439 756 392 758 q 540 742 504 753 q 631 703 597 724 q 693 631 668 678 q 713 585 707 608 q 718 542 721 549 q 703 526 714 532 q 685 519 693 521 q 659 518 676 518 q 639 518 642 518 q 567 515 614 518 q 533 518 540 515 q 504 551 513 526 q 481 588 496 572 q 396 614 447 619 q 328 576 338 607 q 325 544 324 560 q 353 510 329 524 q 439 481 371 499 q 532 457 506 465 q 554 450 538 456 q 579 442 571 444 q 619 422 599 435 q 664 396 656 403 q 699 363 668 393 q 740 274 728 329 m 383 681 q 392 658 382 668 q 414 649 403 649 q 447 668 438 647 q 439 706 456 689 q 403 711 424 721 q 383 681 382 701 z "},"T":{"ha":833,"x_min":74,"x_max":756,"o":"m 754 700 q 756 679 756 697 l 756 635 q 754 572 756 579 q 717 546 749 546 l 563 546 q 526 517 531 546 l 526 490 l 526 335 l 526 33 q 496 0 526 3 l 435 0 l 346 0 q 307 17 317 0 q 301 47 301 26 l 301 104 l 301 290 l 301 467 q 302 486 301 469 q 302 510 303 503 q 297 528 301 518 q 283 543 293 538 q 232 546 278 546 l 136 546 q 89 553 100 546 q 74 596 74 561 l 74 685 q 97 724 74 714 q 121 725 100 725 l 172 725 l 544 725 l 692 725 l 721 725 q 738 721 729 725 q 747 713 743 719 q 751 706 750 710 q 754 700 753 701 m 449 650 q 440 671 450 661 q 418 682 429 681 q 385 664 396 685 q 390 626 375 643 q 428 619 406 610 q 449 650 450 628 z "},"U":{"ha":833,"x_min":81,"x_max":756,"o":"m 754 693 q 756 672 756 690 l 756 631 l 756 346 l 756 281 q 738 182 756 242 q 617 36 706 88 q 425 0 551 0 q 328 7 381 0 q 239 26 276 14 q 163 79 204 40 q 108 156 136 106 q 93 201 103 165 q 83 251 89 214 q 81 318 81 274 l 81 593 l 81 681 q 93 708 81 697 q 125 718 104 718 l 254 718 q 286 707 275 718 q 297 689 293 700 q 299 674 297 678 q 306 669 303 669 l 317 669 q 350 683 333 669 q 389 707 383 706 q 431 710 417 713 q 499 664 478 703 q 496 571 526 613 q 418 526 467 526 q 360 549 385 526 q 350 556 354 551 q 339 564 343 563 q 303 564 311 568 q 299 547 299 563 l 299 494 l 299 347 q 301 269 299 286 q 351 199 311 219 q 442 185 394 176 q 517 226 489 192 q 539 306 539 256 l 539 543 l 539 664 l 539 683 q 567 715 542 708 q 604 718 574 718 l 679 718 l 719 718 q 742 710 731 717 q 754 693 753 703 m 385 619 q 393 599 383 608 q 414 588 403 589 q 446 603 435 585 q 443 639 457 622 q 407 650 428 657 q 385 619 382 640 z "},"V":{"ha":833,"x_min":49,"x_max":781,"o":"m 779 711 q 776 694 781 708 q 745 610 765 667 q 715 524 725 553 l 615 244 q 578 138 603 207 q 543 43 553 69 q 517 7 533 15 q 486 0 504 0 l 422 0 l 353 0 q 321 1 325 0 q 288 26 297 8 l 283 36 q 218 224 263 99 q 169 364 201 271 q 119 504 136 457 l 54 690 q 52 695 53 692 q 51 700 51 699 q 53 717 49 710 q 69 724 58 724 l 183 724 l 244 724 q 272 719 264 724 q 297 685 288 711 q 300 674 297 683 q 306 658 303 664 q 311 651 306 656 q 317 656 313 653 q 322 660 321 658 q 332 674 328 665 q 382 717 363 711 q 431 721 406 725 q 488 686 465 717 q 507 619 511 656 q 475 563 503 588 q 419 539 449 539 q 379 546 399 538 l 363 554 q 353 555 360 556 q 343 553 346 554 q 340 549 340 551 q 344 538 340 546 l 357 497 q 372 450 361 485 q 389 396 382 415 q 394 380 390 392 q 400 361 397 368 q 407 343 404 346 q 426 364 418 338 l 428 367 q 535 694 471 504 q 571 724 543 719 q 590 724 579 724 q 613 724 600 724 q 633 724 626 724 l 736 724 q 779 711 781 724 m 382 632 q 390 610 382 621 q 407 599 397 600 q 442 613 428 594 q 442 649 456 631 q 407 663 428 667 q 392 651 399 661 q 385 642 388 647 q 383 637 383 640 q 382 632 383 633 z "},"W":{"ha":833,"x_min":-54,"x_max":879,"o":"m 876 722 q 871 681 879 715 q 840 576 861 650 q 806 461 818 501 l 722 174 q 678 24 692 74 q 669 9 675 14 q 653 2 663 4 q 635 0 643 0 q 615 1 628 0 q 599 1 603 1 q 561 8 571 1 q 549 29 556 13 l 444 257 q 424 279 438 274 q 388 264 401 289 q 374 235 382 254 q 363 211 365 217 q 355 194 360 206 q 347 178 350 183 q 326 129 340 161 q 303 82 311 97 q 275 22 290 53 q 251 3 267 7 q 197 1 246 1 q 157 8 165 1 q 139 47 149 14 l 76 271 q -6 560 29 436 q -47 703 -43 689 q -31 738 -54 728 q 7 740 -25 740 l 81 740 q 93 741 85 740 q 108 742 101 742 q 121 740 115 742 q 147 689 135 738 l 193 551 q 204 519 197 540 q 214 488 211 499 q 219 471 217 482 q 225 454 222 460 q 253 439 236 433 q 271 463 263 443 l 321 588 q 333 616 325 597 q 344 644 340 635 q 356 671 351 665 q 392 697 368 689 q 436 697 415 704 q 483 644 467 686 l 529 521 q 547 474 532 513 q 569 414 561 435 q 593 399 576 397 q 611 418 606 400 l 640 521 q 660 592 647 544 q 681 664 674 640 q 694 713 688 692 q 700 733 700 732 q 725 740 706 740 l 793 740 l 847 740 q 863 738 858 740 q 871 731 869 733 q 874 726 872 729 q 876 722 875 724 m 446 617 q 421 647 450 639 q 388 633 400 653 q 390 597 376 614 q 425 587 404 579 q 446 617 446 594 z "},"X":{"ha":833,"x_min":32,"x_max":800,"o":"m 796 19 q 792 6 800 11 q 774 0 783 1 l 718 0 l 639 0 q 622 0 636 0 q 602 0 607 0 q 586 1 597 0 q 568 6 575 3 q 554 15 561 10 q 524 54 553 15 q 511 74 521 58 q 496 99 501 90 q 440 185 451 165 q 403 200 425 211 q 369 158 389 193 l 315 71 q 302 50 311 65 q 288 28 293 35 q 246 3 274 8 q 210 0 235 0 l 135 0 l 67 0 q 38 8 43 0 q 43 35 32 18 l 65 68 l 232 310 q 256 344 243 325 q 267 367 265 360 q 247 429 272 394 q 86 665 103 640 q 79 674 86 667 q 69 688 72 682 q 61 701 65 693 q 58 714 57 708 q 64 724 58 719 q 99 728 71 728 l 172 728 l 236 728 q 271 719 254 728 q 300 689 290 708 q 318 660 307 679 q 332 636 329 642 q 334 641 333 638 q 335 646 335 644 q 350 669 340 658 q 440 693 388 707 q 479 669 461 688 q 501 629 488 661 l 513 649 q 544 704 538 694 q 589 728 561 725 l 633 728 l 717 728 q 760 726 753 728 q 769 697 783 721 q 710 610 756 675 q 617 471 661 535 q 595 439 613 464 q 569 400 578 414 q 568 353 558 379 l 582 332 q 658 221 626 269 q 751 88 690 176 l 782 42 q 796 19 796 28 m 449 613 q 421 643 450 636 q 388 626 399 646 q 392 589 376 604 q 428 581 407 571 q 449 613 449 592 z "},"Y":{"ha":833,"x_min":33,"x_max":803,"o":"m 794 717 q 786 688 803 708 l 588 392 q 538 310 542 324 q 528 190 528 283 q 528 140 528 172 q 528 82 528 108 q 528 33 528 56 q 518 10 528 19 q 494 0 508 0 l 421 0 l 339 0 q 304 31 307 0 l 304 81 l 304 181 q 297 306 304 281 q 285 332 293 318 q 265 364 278 346 q 247 388 251 382 q 49 685 82 635 q 36 714 33 707 q 78 725 39 725 q 128 725 96 725 q 186 725 160 725 q 236 725 213 725 q 288 696 271 725 q 308 661 301 674 q 321 653 317 650 q 326 665 322 653 q 342 693 329 676 q 386 721 358 713 q 449 717 418 731 q 494 674 481 704 q 503 653 500 661 q 510 640 506 640 q 525 661 511 640 q 535 678 528 667 q 546 696 543 690 q 562 714 553 707 q 584 723 571 721 q 606 726 597 725 q 633 726 615 726 q 656 725 650 725 l 753 725 q 794 717 792 725 m 379 632 q 388 612 378 621 q 410 601 399 603 q 440 619 432 600 q 436 654 449 638 q 400 664 424 672 q 379 632 379 654 m 454 543 q 440 546 453 549 q 421 540 432 543 q 385 546 389 540 l 383 546 q 390 524 381 543 q 411 499 406 500 q 435 513 426 493 q 454 543 440 522 z "},"Z":{"ha":833,"x_min":71,"x_max":760,"o":"m 758 147 q 760 110 760 144 l 760 47 q 754 17 760 26 q 725 0 746 0 l 682 0 l 444 0 l 186 0 l 114 0 q 72 22 81 0 q 71 58 71 25 l 71 122 q 93 190 71 167 q 112 209 99 197 q 128 224 125 221 q 211 301 183 276 q 401 482 335 419 q 449 526 435 513 q 456 547 461 539 q 435 553 451 553 l 201 553 l 156 553 l 136 553 q 123 560 128 556 q 115 569 118 565 q 111 582 113 574 q 110 594 110 590 q 110 609 110 599 q 110 622 110 619 l 110 685 q 117 714 110 703 q 144 725 128 725 l 161 725 l 375 725 l 635 725 l 704 725 q 719 724 714 725 q 743 696 739 718 q 744 653 744 692 l 744 597 q 719 538 742 560 q 590 415 697 517 l 403 238 q 361 199 368 206 q 360 175 346 183 q 379 174 361 174 l 614 174 l 714 174 l 732 174 q 758 147 760 165 m 447 639 q 443 663 451 644 q 425 675 438 669 q 390 663 404 682 q 386 625 375 644 q 422 611 399 607 q 440 621 432 613 q 447 639 449 629 z "},"^":{"ha":833,"x_min":0,"x_max":0,"o":""},"a":{"ha":833,"x_min":-4,"x_max":804,"o":"m 800 24 q 799 11 804 18 q 788 1 794 4 q 769 0 782 0 l 739 0 l 613 0 l 582 0 q 562 4 571 0 q 547 14 553 8 q 537 31 542 19 q 530 47 532 42 q 524 67 528 53 q 518 86 519 82 q 479 119 510 117 l 475 119 l 457 119 l 426 119 l 361 119 l 331 119 l 317 119 l 314 119 q 282 99 292 115 q 266 58 272 82 q 253 22 260 33 q 213 0 239 0 l 182 0 l 135 0 l 104 0 l 57 0 l 26 0 q 8 3 14 0 q 1 29 -4 11 q 3 38 1 32 q 7 46 6 43 q 25 90 10 51 l 150 426 q 202 565 168 475 q 249 688 236 654 q 264 711 254 703 q 306 725 279 725 l 336 725 l 468 725 l 499 725 q 553 685 539 725 l 590 586 l 724 232 l 778 86 q 786 65 781 79 q 794 43 792 50 q 797 34 794 42 q 800 24 800 26 m 383 639 q 400 615 383 626 q 415 632 411 622 q 406 668 424 653 l 400 672 q 383 639 383 664 m 368 276 l 418 276 l 438 276 q 449 285 446 279 q 452 292 451 288 q 454 297 453 296 q 450 315 454 307 q 440 349 444 338 q 424 402 435 368 q 410 450 414 436 q 405 469 408 456 q 399 490 401 483 q 358 356 382 440 q 343 308 347 325 q 347 285 340 294 q 368 276 354 276 z "},"b":{"ha":833,"x_min":113,"x_max":775,"o":"m 771 219 q 767 161 775 196 q 707 60 753 97 q 657 25 679 35 q 600 11 647 21 q 356 0 536 0 l 175 0 l 142 0 q 113 35 115 3 l 113 118 l 113 297 l 113 651 l 113 688 q 126 717 115 707 q 160 725 135 725 l 224 725 l 419 725 l 474 726 q 528 725 528 728 q 649 697 613 719 q 729 599 717 656 q 724 475 749 526 q 689 426 711 449 l 678 415 l 665 408 q 653 401 664 407 q 640 392 643 396 q 651 376 632 381 q 679 365 664 372 q 728 329 714 347 q 771 219 771 279 m 383 651 q 389 629 378 644 q 408 617 397 618 q 444 631 431 611 q 443 668 457 650 q 408 681 429 688 q 383 651 382 672 m 326 474 q 342 447 326 457 q 367 442 349 442 l 439 442 q 490 454 467 442 q 517 497 511 465 q 508 547 521 526 q 467 574 494 569 q 418 576 436 576 l 375 576 q 353 575 360 576 q 326 539 329 568 l 326 474 m 546 238 q 513 289 550 271 q 449 303 489 303 l 371 303 q 329 281 336 303 q 326 257 326 274 l 326 208 q 346 163 326 174 q 369 160 354 160 l 417 160 q 475 161 465 160 q 529 183 515 167 q 546 238 546 203 z "},"c":{"ha":833,"x_min":42,"x_max":743,"o":"m 740 236 q 735 200 743 232 q 719 165 728 183 q 613 44 678 85 q 535 14 576 24 q 451 1 507 7 l 368 1 q 285 15 331 3 q 204 47 233 28 q 140 100 167 69 q 90 169 113 131 q 60 246 76 192 q 44 332 50 274 q 44 418 42 376 q 90 588 51 508 q 208 706 125 657 q 376 750 271 742 q 547 733 475 754 q 685 638 628 708 q 726 567 704 613 q 728 532 738 544 q 704 517 722 521 q 593 493 668 510 q 535 507 546 481 q 494 558 524 533 q 460 576 479 569 q 421 582 451 579 q 340 563 379 589 q 310 536 322 550 q 288 500 304 529 q 269 417 279 482 q 269 331 265 374 q 333 188 279 217 q 371 172 365 174 l 413 168 q 489 190 453 168 q 535 253 515 208 q 541 269 536 256 q 550 289 546 282 q 585 300 563 306 q 681 272 596 299 q 697 267 682 272 q 717 260 711 263 q 730 251 722 258 q 740 236 738 244 m 393 657 q 403 637 392 646 q 426 629 415 628 q 457 651 450 629 q 446 688 464 672 q 408 690 431 703 q 393 657 393 681 z "},"d":{"ha":833,"x_min":100,"x_max":771,"o":"m 767 397 q 767 338 771 368 q 763 276 763 278 q 751 217 761 249 q 732 164 743 182 q 701 115 708 122 q 621 42 668 72 q 506 6 592 24 q 410 0 481 0 l 239 0 l 160 0 l 128 0 q 100 58 100 6 l 100 368 l 100 671 l 100 692 q 129 726 103 719 l 164 726 l 246 726 l 413 726 q 507 721 464 726 q 621 685 568 714 q 645 667 629 679 q 665 651 661 654 q 701 610 672 647 q 731 558 719 588 q 733 551 731 556 q 738 546 736 547 l 742 533 q 746 519 743 529 q 750 506 749 510 q 767 397 767 436 m 385 643 q 392 622 383 632 q 413 610 401 613 q 446 625 432 606 q 451 643 451 631 q 444 663 451 651 q 407 675 432 682 q 391 662 399 672 q 385 643 383 651 m 543 365 q 542 379 543 369 q 542 394 542 389 q 519 499 536 467 q 431 557 492 547 q 379 563 415 560 q 338 556 347 563 q 327 540 331 550 q 324 522 324 529 q 324 499 324 514 q 325 481 325 485 l 325 203 q 336 171 325 181 q 351 164 343 165 q 372 164 358 163 q 389 165 386 165 q 485 185 453 165 q 535 264 517 201 q 542 311 539 279 q 543 365 543 329 z "},"e":{"ha":833,"x_min":129,"x_max":733,"o":"m 732 14 l 732 13 q 731 10 731 11 l 731 8 l 729 8 l 725 4 l 725 3 l 724 1 l 721 1 l 719 0 l 144 0 l 142 1 l 140 1 l 138 3 l 136 3 l 129 10 l 129 707 l 136 714 l 139 715 l 140 717 l 147 717 l 321 717 l 611 717 l 696 717 l 710 717 q 724 697 724 715 q 724 659 724 683 q 724 615 724 635 q 724 578 724 594 q 723 574 724 576 q 722 571 722 572 q 711 556 719 563 l 710 554 l 708 554 l 707 553 l 704 551 l 700 551 l 688 551 l 422 551 l 376 551 l 361 551 q 357 550 358 551 q 350 519 347 546 q 351 467 350 475 q 371 450 356 453 l 400 450 l 536 450 l 661 450 l 682 450 q 696 429 696 449 l 696 365 q 697 351 696 360 q 697 334 697 342 q 696 321 697 326 q 692 311 696 315 l 692 310 l 689 307 l 686 306 l 683 306 l 681 304 l 676 304 l 647 304 l 386 304 l 365 304 q 360 301 363 304 q 351 282 351 294 l 351 217 l 351 190 q 354 181 351 189 q 364 171 358 172 q 372 169 367 169 l 407 169 l 543 169 l 679 169 l 719 169 l 721 169 q 724 168 722 168 q 732 160 731 167 q 733 126 733 158 l 733 56 q 732 14 733 18 m 393 657 l 392 654 l 390 653 q 388 639 388 649 q 394 619 386 628 q 414 608 403 611 l 428 608 l 431 611 l 436 614 l 442 619 l 443 621 l 443 624 l 444 628 l 446 631 l 447 635 l 447 642 l 446 646 l 444 649 l 443 653 l 443 654 l 442 657 l 436 663 l 433 664 l 431 667 l 426 668 l 424 668 q 394 658 404 671 l 393 657 z "},"f":{"ha":833,"x_min":136,"x_max":694,"o":"m 693 713 q 694 689 694 711 l 694 638 l 694 590 q 689 568 694 574 q 646 557 681 557 l 439 557 q 423 557 433 557 q 404 557 413 557 q 389 557 396 557 q 364 536 369 553 l 364 499 q 365 464 364 467 q 390 446 369 449 l 446 446 l 644 446 l 660 446 q 682 424 679 443 l 682 392 l 682 339 q 678 314 682 319 q 654 299 671 300 l 593 299 l 397 299 l 381 299 q 364 272 364 292 l 364 190 l 364 26 q 333 0 364 6 l 300 0 l 244 0 l 190 0 l 164 0 q 136 31 136 4 l 136 146 l 136 363 l 136 581 l 136 700 q 161 731 136 728 l 194 731 l 386 731 l 600 731 l 660 731 q 693 713 683 731 m 449 649 q 442 672 450 661 q 422 685 433 682 q 388 669 400 689 q 389 631 375 649 q 425 619 401 614 q 442 631 435 624 q 447 640 444 633 q 449 649 447 647 z "},"g":{"ha":833,"x_min":57,"x_max":772,"o":"m 771 400 q 772 372 772 397 l 772 311 l 772 171 q 751 103 772 124 q 710 75 744 96 q 665 51 686 61 q 621 31 631 35 q 574 17 610 26 q 476 1 549 8 q 375 3 435 -1 q 192 65 263 10 q 82 229 110 132 q 63 328 67 283 q 63 429 57 389 q 83 528 69 481 q 132 619 100 576 q 201 689 157 657 q 293 733 239 715 q 390 749 333 746 q 493 749 458 751 q 593 735 560 743 q 638 717 619 728 q 678 690 665 703 q 736 617 714 656 q 732 539 771 547 l 615 518 q 579 513 589 511 q 543 535 557 514 q 472 586 515 576 q 379 583 424 597 q 307 521 336 569 q 279 425 286 485 q 304 232 268 301 q 374 171 326 188 q 474 161 421 154 q 515 172 488 164 q 527 177 519 174 q 536 182 535 181 q 557 192 547 185 q 582 228 576 204 q 569 269 588 253 q 526 275 561 275 l 471 275 q 439 301 443 278 l 439 354 q 440 401 439 397 q 472 426 444 424 l 571 426 l 714 426 l 740 426 q 762 417 751 425 q 771 400 772 410 m 406 693 q 383 661 381 683 q 391 640 382 650 q 411 628 400 631 q 445 644 433 624 q 443 682 457 665 q 406 693 426 701 z "},"h":{"ha":833,"x_min":75,"x_max":769,"o":"m 768 700 q 769 683 769 697 l 769 654 l 769 382 l 769 93 l 769 36 q 753 6 769 14 q 717 0 743 0 l 582 0 q 550 17 558 3 q 544 49 544 25 l 544 192 l 544 251 q 539 281 544 272 q 506 294 528 294 l 446 294 l 332 294 q 315 290 322 294 q 305 278 308 285 q 300 261 301 272 q 298 243 299 250 q 298 224 297 236 q 299 208 299 211 l 299 103 l 299 49 q 285 7 299 17 q 250 0 275 0 l 176 0 l 114 0 q 83 15 92 3 q 75 64 75 25 l 75 326 l 75 622 l 75 690 q 119 728 75 728 l 257 728 q 289 718 278 728 q 299 696 299 708 q 299 683 299 693 q 300 674 299 674 l 324 674 q 344 685 326 675 q 371 704 350 689 q 415 715 389 715 q 442 711 429 715 q 482 686 465 706 q 503 642 499 667 q 497 590 508 615 q 463 550 485 564 q 379 544 417 525 q 357 558 365 550 q 335 574 340 572 q 318 575 329 575 l 300 575 l 300 572 q 299 569 300 571 l 299 507 q 361 472 300 472 l 503 472 q 533 482 524 472 q 544 514 544 493 l 544 656 q 544 669 544 658 q 544 684 544 679 q 546 697 544 689 q 550 710 547 706 q 558 720 553 715 q 572 726 564 725 q 613 728 578 728 l 692 728 l 736 728 q 758 719 747 726 q 768 700 769 711 m 381 626 q 389 606 379 615 q 410 593 399 596 q 443 608 429 589 q 440 647 456 626 q 403 657 426 665 q 381 626 379 649 z "},"i":{"ha":833,"x_min":215,"x_max":614,"o":"m 613 703 q 614 685 614 700 l 614 649 l 614 578 q 583 546 611 549 l 554 546 l 528 546 l 528 535 l 528 513 l 528 196 l 528 183 q 544 182 528 182 q 603 174 593 182 q 614 131 614 164 l 614 46 q 600 7 614 18 q 585 0 594 1 q 562 0 576 -1 q 546 1 547 1 l 419 1 l 294 1 l 256 1 q 236 3 239 1 q 217 42 217 11 l 217 125 q 224 169 217 161 q 278 182 235 182 l 301 182 l 301 193 l 301 507 l 301 532 l 301 544 q 283 546 300 546 l 250 546 q 226 554 236 546 q 217 576 217 563 q 217 608 215 576 l 217 639 l 217 699 q 228 719 218 711 q 251 726 239 726 l 368 726 l 499 726 l 575 726 q 594 724 588 726 q 613 703 611 714 m 449 635 q 440 656 450 646 q 418 667 431 665 q 385 646 394 667 q 392 610 376 625 q 428 603 407 594 q 449 635 450 613 z "},"j":{"ha":833,"x_min":94,"x_max":678,"o":"m 676 696 q 678 674 678 689 l 678 393 q 669 215 678 304 q 639 118 663 164 q 568 44 617 78 q 375 0 506 0 q 178 53 244 0 q 115 133 135 88 q 103 181 107 157 q 100 199 103 185 q 97 222 97 214 q 118 261 94 253 q 161 269 126 267 q 238 279 211 275 q 274 279 264 282 q 299 240 292 271 q 310 203 306 210 q 342 174 322 181 q 386 171 356 168 q 429 189 411 174 q 450 229 444 201 q 456 308 456 256 l 456 550 q 425 544 432 543 q 400 550 411 547 q 351 588 372 558 q 337 644 335 613 q 360 699 339 676 q 464 722 403 746 q 472 724 469 721 l 482 728 q 497 731 493 731 l 575 731 l 606 731 q 638 731 638 732 q 665 719 651 729 q 676 696 678 710 m 461 633 q 454 657 465 642 q 436 669 447 665 q 402 655 415 674 q 403 618 389 636 q 436 606 415 601 q 453 616 444 607 q 461 633 463 625 z "},"k":{"ha":833,"x_min":117,"x_max":804,"o":"m 800 22 q 797 7 804 17 q 782 1 792 1 l 760 1 l 642 1 q 574 4 582 1 q 543 26 551 13 q 533 48 539 33 q 526 65 528 63 q 492 146 519 81 q 461 217 472 193 q 438 271 454 235 q 425 294 432 289 q 393 289 411 308 q 361 254 371 267 q 344 226 347 239 q 342 193 342 215 l 342 122 l 342 60 l 342 32 q 321 4 340 14 q 296 1 313 1 l 182 1 q 169 1 179 1 q 155 1 160 0 q 142 3 150 1 q 130 8 135 4 q 122 18 125 11 q 117 53 117 26 l 117 229 l 117 481 l 117 668 q 118 699 117 689 q 142 725 124 721 q 168 726 146 726 l 283 726 l 310 726 q 339 708 328 726 q 341 703 340 707 q 343 699 342 700 q 349 697 344 697 q 358 703 351 699 l 364 708 q 400 722 390 719 q 469 704 442 732 q 492 675 481 693 q 505 668 496 669 q 519 671 514 667 q 531 687 525 675 q 542 703 538 699 q 574 722 553 718 q 647 726 588 726 l 749 726 q 775 713 771 726 q 767 686 778 701 l 722 625 l 606 463 q 594 439 596 451 q 600 408 592 422 l 624 363 q 678 258 642 328 q 733 151 715 188 q 753 111 740 138 q 778 63 767 85 q 800 22 789 42 m 446 646 q 437 665 447 657 q 415 674 426 674 q 383 654 392 674 q 392 618 375 632 q 429 613 408 603 q 446 646 446 622 m 426 551 q 403 560 426 556 q 368 569 378 563 q 343 574 347 586 q 343 566 343 571 q 343 555 343 561 q 343 546 343 549 q 342 518 343 538 q 342 489 342 499 q 343 461 342 465 q 351 451 344 451 q 364 458 358 450 q 385 486 371 467 q 415 528 404 514 q 426 551 426 544 z "},"l":{"ha":833,"x_min":203,"x_max":775,"o":"m 772 150 q 774 129 774 143 l 774 85 q 774 68 774 82 q 774 48 775 54 q 772 31 774 42 q 766 15 769 19 q 755 5 763 10 q 736 0 747 0 l 631 0 l 274 0 l 239 0 q 206 22 214 0 q 203 46 203 29 l 203 90 l 203 451 l 203 690 q 238 725 203 722 q 269 725 238 726 l 300 725 l 383 725 q 396 724 392 725 q 406 721 400 724 q 409 718 407 719 q 413 715 411 717 q 419 713 414 714 q 425 713 424 713 q 443 708 426 713 q 490 669 469 700 q 501 611 506 644 q 474 560 496 578 q 450 543 464 550 q 438 540 447 542 q 426 536 429 538 q 424 510 424 533 l 424 332 l 424 253 q 425 217 424 219 q 460 196 433 196 l 521 196 l 700 196 q 738 193 729 196 q 772 150 772 182 m 381 624 q 388 603 379 613 q 408 592 397 594 q 441 608 429 589 q 439 644 453 626 q 404 656 424 663 q 387 644 394 654 q 381 624 379 635 z "},"m":{"ha":833,"x_min":31,"x_max":801,"o":"m 800 697 q 801 683 801 693 l 801 653 l 801 392 l 801 106 l 801 38 q 794 15 799 22 q 763 1 783 1 l 642 1 q 611 24 619 1 q 608 49 608 32 l 608 317 l 608 342 q 606 351 608 347 q 597 353 603 354 q 585 340 593 353 q 576 315 579 333 l 556 253 q 535 187 549 231 q 514 121 521 143 q 504 94 507 100 q 465 68 493 74 l 414 68 q 365 69 381 68 q 326 97 340 71 q 317 124 324 103 l 275 256 q 253 321 264 285 l 244 350 q 231 354 239 358 q 222 342 222 350 l 222 314 l 222 174 l 222 47 q 219 22 222 31 q 188 1 211 1 l 65 1 q 31 39 31 1 l 31 243 l 31 549 l 31 657 q 32 703 31 699 q 40 718 35 713 q 56 725 46 724 q 72 727 65 726 q 90 727 78 728 q 106 726 103 726 l 242 726 q 272 718 261 726 q 286 701 282 713 q 289 695 288 699 q 292 688 290 692 q 294 681 293 683 q 299 667 296 678 q 305 648 301 656 q 314 639 308 640 q 328 647 324 635 q 333 657 329 650 q 339 668 336 664 q 419 711 371 713 q 497 660 472 707 l 497 658 q 518 639 508 632 q 521 644 519 640 q 524 652 522 647 q 526 658 525 657 q 531 672 528 661 q 536 690 535 683 q 564 722 543 714 q 596 728 575 728 q 736 726 643 726 l 771 726 q 792 717 782 725 q 800 697 801 708 m 383 614 q 394 594 383 603 q 414 585 404 585 q 445 606 436 585 q 438 642 454 628 q 400 646 419 658 q 383 614 383 638 m 492 549 q 480 551 488 556 q 467 542 472 547 q 400 526 433 521 q 367 540 390 529 l 351 551 q 347 557 350 553 q 344 558 346 558 l 342 558 q 339 547 338 556 q 340 542 339 546 q 342 536 340 538 l 363 475 q 404 349 376 432 q 414 324 408 326 q 419 324 417 322 q 422 330 421 326 q 424 336 424 333 q 426 342 425 339 l 464 463 q 473 490 467 469 q 483 522 479 511 q 492 549 492 544 z "},"n":{"ha":833,"x_min":68,"x_max":764,"o":"m 763 699 q 764 675 764 696 l 764 326 l 764 35 q 755 11 764 21 q 733 0 746 1 l 671 0 l 571 0 q 522 7 535 0 q 497 29 506 17 q 483 50 492 36 q 443 117 456 94 q 374 232 382 217 l 319 319 q 301 349 308 339 q 288 363 294 363 q 281 329 281 363 l 281 247 l 281 56 q 275 15 281 25 q 226 0 267 0 l 128 0 q 79 11 88 0 q 69 42 69 22 l 69 88 l 69 478 l 69 646 q 69 664 69 647 q 69 688 68 681 q 74 706 69 694 q 86 721 78 717 q 139 726 96 726 l 242 726 q 294 724 283 726 q 344 681 324 715 q 356 690 349 688 q 399 711 381 710 q 442 710 417 715 q 486 680 467 703 q 507 631 506 657 q 458 539 511 568 q 453 535 457 538 q 447 533 449 533 q 443 530 446 532 q 442 525 440 528 q 443 518 443 522 q 459 491 447 508 q 474 468 471 474 q 518 394 513 404 q 542 361 535 365 q 551 382 551 364 l 551 436 l 551 610 l 551 675 q 554 706 551 699 q 592 726 564 726 l 667 726 l 729 726 q 749 719 739 726 q 763 699 763 711 m 438 597 q 442 640 458 618 q 407 651 428 658 q 383 624 386 644 q 401 592 381 601 q 438 597 422 582 z "},"o":{"ha":833,"x_min":28,"x_max":789,"o":"m 788 428 q 789 371 789 408 q 732 144 789 232 q 551 17 664 43 q 436 0 485 0 q 319 8 367 0 q 263 21 293 13 q 208 44 244 28 q 119 118 163 64 q 63 218 85 161 q 40 335 46 264 q 81 572 28 472 q 151 664 108 625 q 254 725 190 699 q 492 744 357 764 q 699 646 629 725 l 721 621 q 729 608 724 617 q 736 597 735 600 q 763 543 756 568 q 779 488 774 515 q 788 428 786 458 m 378 660 q 385 640 376 649 q 406 628 394 631 q 440 643 425 622 q 444 661 444 649 q 438 679 444 672 q 422 692 433 688 q 401 692 411 696 q 384 679 392 689 q 378 660 376 669 m 567 383 q 566 397 567 389 q 565 411 565 406 q 536 519 563 472 q 442 578 507 568 q 333 558 378 588 q 271 465 288 529 q 263 350 257 417 q 288 239 268 276 q 375 172 319 182 q 486 183 440 160 q 553 269 535 207 q 567 383 560 290 z "},"p":{"ha":833,"x_min":147,"x_max":764,"o":"m 763 517 q 760 461 764 507 q 746 403 758 438 q 717 353 736 382 q 625 289 690 313 q 511 269 576 272 l 444 269 q 390 265 397 269 q 372 224 372 256 l 372 165 l 372 90 q 373 73 372 85 q 374 51 374 61 q 372 33 374 42 q 356 6 371 15 q 311 0 346 0 l 225 0 q 209 0 219 0 q 191 0 199 0 q 176 0 183 0 q 147 35 147 6 l 147 53 l 147 169 l 147 526 l 147 658 q 158 718 147 708 q 192 726 169 726 l 250 726 l 428 726 q 469 727 435 726 q 517 727 504 728 q 557 724 531 726 q 603 717 583 722 q 643 706 624 713 q 731 632 700 685 q 763 517 763 579 m 388 649 q 396 628 386 638 q 417 615 406 618 q 450 633 439 613 q 447 671 461 654 q 410 681 431 690 q 394 667 401 678 q 388 649 386 657 m 544 503 q 517 558 546 533 q 460 578 496 575 q 408 579 439 583 q 374 550 378 575 q 372 485 372 540 q 378 431 372 439 q 399 417 388 418 l 428 417 q 483 422 460 417 q 531 453 513 429 q 544 503 544 472 z "},"q":{"ha":833,"x_min":36,"x_max":808,"o":"m 803 114 q 799 93 808 106 q 779 58 790 75 q 744 6 756 14 q 731 0 739 0 q 718 3 724 0 q 704 11 713 6 q 693 18 696 17 q 642 53 675 28 q 590 75 608 75 q 575 72 585 75 q 561 68 565 68 q 526 58 553 65 q 464 51 504 54 q 338 56 400 47 q 110 183 194 74 q 39 431 36 282 q 115 676 44 589 q 218 761 161 732 q 346 800 276 789 q 478 801 407 808 q 543 790 525 794 q 604 768 568 783 q 709 693 664 744 q 774 579 754 642 q 796 447 793 517 q 785 313 796 364 q 735 193 767 242 q 732 168 725 178 q 756 150 740 158 q 783 135 779 136 q 803 114 796 128 m 379 707 q 388 686 378 696 q 408 675 397 676 q 442 693 432 672 q 436 731 453 714 q 399 738 421 746 q 379 707 378 729 m 569 419 l 569 454 q 560 525 569 483 q 528 586 550 567 q 503 610 508 606 q 472 624 490 618 q 403 633 431 636 q 290 560 325 625 q 269 492 274 529 q 265 422 264 444 q 267 389 267 413 q 271 353 268 365 q 293 285 283 301 q 401 218 326 228 l 428 218 q 449 222 444 218 q 438 240 456 232 q 411 260 432 244 q 385 303 374 282 l 410 347 q 426 368 418 365 q 453 363 435 372 l 483 342 q 511 324 503 331 q 524 315 514 322 q 539 306 533 307 q 552 313 547 304 q 560 335 557 321 q 564 351 564 350 q 569 419 569 374 z "},"r":{"ha":833,"x_min":78,"x_max":779,"o":"m 776 26 q 776 10 779 21 q 761 1 774 4 l 740 1 l 625 1 q 557 4 565 1 q 515 43 532 13 q 463 140 465 135 q 419 221 440 186 q 382 274 393 263 q 319 296 361 296 q 304 283 308 296 q 303 258 303 275 l 303 54 l 303 33 q 286 6 301 17 q 260 1 278 1 l 211 1 l 113 1 q 88 10 97 1 q 78 35 78 19 l 78 160 l 78 403 l 78 622 l 78 683 q 90 719 78 711 q 139 726 99 726 l 243 726 l 446 726 q 585 715 532 726 q 656 686 629 706 q 706 631 682 668 q 729 486 743 568 q 704 418 721 442 q 654 363 679 381 q 624 343 635 349 q 606 336 618 340 q 589 329 594 332 q 582 313 565 321 l 611 297 q 625 286 618 293 q 637 274 632 279 q 649 259 642 268 q 660 246 657 250 q 670 232 663 242 q 681 215 678 222 q 683 209 682 213 q 687 201 685 206 q 690 196 689 197 l 743 93 q 767 47 760 63 q 776 26 775 33 m 386 651 q 394 631 385 640 q 415 619 404 621 q 447 638 436 618 q 443 674 457 657 q 407 682 428 692 q 386 651 383 674 m 507 507 q 476 561 508 539 q 413 574 456 574 l 340 574 q 303 547 307 574 l 303 522 l 303 474 q 304 451 303 458 q 322 431 308 438 q 346 426 331 426 l 392 426 q 442 431 417 426 q 490 457 471 436 q 507 507 507 475 z "},"s":{"ha":833,"x_min":83,"x_max":744,"o":"m 740 274 q 729 178 744 226 q 683 94 714 132 q 647 61 678 89 q 607 36 643 57 q 561 18 582 24 q 513 7 524 8 q 417 0 460 0 q 315 8 382 0 q 222 36 268 14 q 99 182 138 74 q 88 231 89 218 q 103 265 83 254 q 138 269 110 269 l 208 274 q 235 274 218 274 q 261 275 253 275 q 294 264 281 278 q 304 243 299 258 q 313 224 311 226 q 340 189 322 203 q 429 160 375 160 q 508 189 481 160 q 522 229 524 207 q 504 269 521 251 q 419 310 488 289 q 364 324 400 315 q 322 335 328 333 q 229 365 272 349 q 152 426 183 385 q 117 515 121 467 q 174 678 110 614 q 343 751 229 733 q 439 756 392 758 q 540 742 504 753 q 631 703 597 724 q 693 631 668 678 q 713 585 707 608 q 718 542 721 549 q 703 526 714 532 q 685 519 693 521 q 659 518 676 518 q 639 518 642 518 q 567 515 614 518 q 533 518 540 515 q 504 551 513 526 q 481 588 496 572 q 396 614 447 619 q 328 576 338 607 q 325 544 324 560 q 353 510 329 524 q 439 481 371 499 q 532 457 506 465 q 554 450 538 456 q 579 442 571 444 q 619 422 599 435 q 664 396 656 403 q 699 363 668 393 q 740 274 728 329 m 383 681 q 392 658 382 668 q 414 649 403 649 q 447 668 438 647 q 439 706 456 689 q 403 711 424 721 q 383 681 382 701 z "},"t":{"ha":833,"x_min":74,"x_max":756,"o":"m 754 700 q 756 679 756 697 l 756 635 q 754 572 756 579 q 717 546 749 546 l 563 546 q 526 517 531 546 l 526 490 l 526 335 l 526 33 q 496 0 526 3 l 435 0 l 346 0 q 307 17 317 0 q 301 47 301 26 l 301 104 l 301 290 l 301 467 q 302 486 301 469 q 302 510 303 503 q 297 528 301 518 q 283 543 293 538 q 232 546 278 546 l 136 546 q 89 553 100 546 q 74 596 74 561 l 74 685 q 97 724 74 714 q 121 725 100 725 l 172 725 l 544 725 l 692 725 l 721 725 q 738 721 729 725 q 747 713 743 719 q 751 706 750 710 q 754 700 753 701 m 449 650 q 440 671 450 661 q 418 682 429 681 q 385 664 396 685 q 390 626 375 643 q 428 619 406 610 q 449 650 450 628 z "},"u":{"ha":833,"x_min":81,"x_max":756,"o":"m 754 693 q 756 672 756 690 l 756 631 l 756 346 l 756 281 q 738 182 756 242 q 617 36 706 88 q 425 0 551 0 q 328 7 381 0 q 239 26 276 14 q 163 79 204 40 q 108 156 136 106 q 93 201 103 165 q 83 251 89 214 q 81 318 81 274 l 81 593 l 81 681 q 93 708 81 697 q 125 718 104 718 l 254 718 q 286 707 275 718 q 297 689 293 700 q 299 674 297 678 q 306 669 303 669 l 317 669 q 350 683 333 669 q 389 707 383 706 q 431 710 417 713 q 499 664 478 703 q 496 571 526 613 q 418 526 467 526 q 360 549 385 526 q 350 556 354 551 q 339 564 343 563 q 303 564 311 568 q 299 547 299 563 l 299 494 l 299 347 q 301 269 299 286 q 351 199 311 219 q 442 185 394 176 q 517 226 489 192 q 539 306 539 256 l 539 543 l 539 664 l 539 683 q 567 715 542 708 q 604 718 574 718 l 679 718 l 719 718 q 742 710 731 717 q 754 693 753 703 m 385 619 q 393 599 383 608 q 414 588 403 589 q 446 603 435 585 q 443 639 457 622 q 407 650 428 657 q 385 619 382 640 z "},"v":{"ha":833,"x_min":49,"x_max":781,"o":"m 779 711 q 776 694 781 708 q 745 610 765 667 q 715 524 725 553 l 615 244 q 578 138 603 207 q 543 43 553 69 q 517 7 533 15 q 486 0 504 0 l 422 0 l 353 0 q 321 1 325 0 q 288 26 297 8 l 283 36 q 218 224 263 99 q 169 364 201 271 q 119 504 136 457 l 54 690 q 52 695 53 692 q 51 700 51 699 q 53 717 49 710 q 69 724 58 724 l 183 724 l 244 724 q 272 719 264 724 q 297 685 288 711 q 300 674 297 683 q 306 658 303 664 q 311 651 306 656 q 317 656 313 653 q 322 660 321 658 q 332 674 328 665 q 382 717 363 711 q 431 721 406 725 q 488 686 465 717 q 507 619 511 656 q 475 563 503 588 q 419 539 449 539 q 379 546 399 538 l 363 554 q 353 555 360 556 q 343 553 346 554 q 340 549 340 551 q 344 538 340 546 l 357 497 q 372 450 361 485 q 389 396 382 415 q 394 380 390 392 q 400 361 397 368 q 407 343 404 346 q 426 364 418 338 l 428 367 q 535 694 471 504 q 571 724 543 719 q 590 724 579 724 q 613 724 600 724 q 633 724 626 724 l 736 724 q 779 711 781 724 m 382 632 q 390 610 382 621 q 407 599 397 600 q 442 613 428 594 q 442 649 456 631 q 407 663 428 667 q 392 651 399 661 q 385 642 388 647 q 383 637 383 640 q 382 632 383 633 z "},"w":{"ha":833,"x_min":-54,"x_max":879,"o":"m 876 722 q 871 681 879 715 q 840 576 861 650 q 806 461 818 501 l 722 174 q 678 24 692 74 q 669 9 675 14 q 653 2 663 4 q 635 0 643 0 q 615 1 628 0 q 599 1 603 1 q 561 8 571 1 q 549 29 556 13 l 444 257 q 424 279 438 274 q 388 264 401 289 q 374 235 382 254 q 363 211 365 217 q 355 194 360 206 q 347 178 350 183 q 326 129 340 161 q 303 82 311 97 q 275 22 290 53 q 251 3 267 7 q 197 1 246 1 q 157 8 165 1 q 139 47 149 14 l 76 271 q -6 560 29 436 q -47 703 -43 689 q -31 738 -54 728 q 7 740 -25 740 l 81 740 q 93 741 85 740 q 108 742 101 742 q 121 740 115 742 q 147 689 135 738 l 193 551 q 204 519 197 540 q 214 488 211 499 q 219 471 217 482 q 225 454 222 460 q 253 439 236 433 q 271 463 263 443 l 321 588 q 333 616 325 597 q 344 644 340 635 q 356 671 351 665 q 392 697 368 689 q 436 697 415 704 q 483 644 467 686 l 529 521 q 547 474 532 513 q 569 414 561 435 q 593 399 576 397 q 611 418 606 400 l 640 521 q 660 592 647 544 q 681 664 674 640 q 694 713 688 692 q 700 733 700 732 q 725 740 706 740 l 793 740 l 847 740 q 863 738 858 740 q 871 731 869 733 q 874 726 872 729 q 876 722 875 724 m 446 617 q 421 647 450 639 q 388 633 400 653 q 390 597 376 614 q 425 587 404 579 q 446 617 446 594 z "},"x":{"ha":833,"x_min":32,"x_max":800,"o":"m 796 19 q 792 6 800 11 q 774 0 783 1 l 718 0 l 639 0 q 622 0 636 0 q 602 0 607 0 q 586 1 597 0 q 568 6 575 3 q 554 15 561 10 q 524 54 553 15 q 511 74 521 58 q 496 99 501 90 q 440 185 451 165 q 403 200 425 211 q 369 158 389 193 l 315 71 q 302 50 311 65 q 288 28 293 35 q 246 3 274 8 q 210 0 235 0 l 135 0 l 67 0 q 38 8 43 0 q 43 35 32 18 l 65 68 l 232 310 q 256 344 243 325 q 267 367 265 360 q 247 429 272 394 q 86 665 103 640 q 79 674 86 667 q 69 688 72 682 q 61 701 65 693 q 58 714 57 708 q 64 724 58 719 q 99 728 71 728 l 172 728 l 236 728 q 271 719 254 728 q 300 689 290 708 q 318 660 307 679 q 332 636 329 642 q 334 641 333 638 q 335 646 335 644 q 350 669 340 658 q 440 693 388 707 q 479 669 461 688 q 501 629 488 661 l 513 649 q 544 704 538 694 q 589 728 561 725 l 633 728 l 717 728 q 760 726 753 728 q 769 697 783 721 q 710 610 756 675 q 617 471 661 535 q 595 439 613 464 q 569 400 578 414 q 568 353 558 379 l 582 332 q 658 221 626 269 q 751 88 690 176 l 782 42 q 796 19 796 28 m 449 613 q 421 643 450 636 q 388 626 399 646 q 392 589 376 604 q 428 581 407 571 q 449 613 449 592 z "},"y":{"ha":833,"x_min":33,"x_max":803,"o":"m 794 717 q 786 688 803 708 l 588 392 q 538 310 542 324 q 528 190 528 283 q 528 140 528 172 q 528 82 528 108 q 528 33 528 56 q 518 10 528 19 q 494 0 508 0 l 421 0 l 339 0 q 304 31 307 0 l 304 81 l 304 181 q 297 306 304 281 q 285 332 293 318 q 265 364 278 346 q 247 388 251 382 q 49 685 82 635 q 36 714 33 707 q 78 725 39 725 q 128 725 96 725 q 186 725 160 725 q 236 725 213 725 q 288 696 271 725 q 308 661 301 674 q 321 653 317 650 q 326 665 322 653 q 342 693 329 676 q 386 721 358 713 q 449 717 418 731 q 494 674 481 704 q 503 653 500 661 q 510 640 506 640 q 525 661 511 640 q 535 678 528 667 q 546 696 543 690 q 562 714 553 707 q 584 723 571 721 q 606 726 597 725 q 633 726 615 726 q 656 725 650 725 l 753 725 q 794 717 792 725 m 379 632 q 388 612 378 621 q 410 601 399 603 q 440 619 432 600 q 436 654 449 638 q 400 664 424 672 q 379 632 379 654 m 454 543 q 440 546 453 549 q 421 540 432 543 q 385 546 389 540 l 383 546 q 390 524 381 543 q 411 499 406 500 q 435 513 426 493 q 454 543 440 522 z "},"z":{"ha":833,"x_min":71,"x_max":760,"o":"m 758 147 q 760 110 760 144 l 760 47 q 754 17 760 26 q 725 0 746 0 l 682 0 l 444 0 l 186 0 l 114 0 q 72 22 81 0 q 71 58 71 25 l 71 122 q 93 190 71 167 q 112 209 99 197 q 128 224 125 221 q 211 301 183 276 q 401 482 335 419 q 449 526 435 513 q 456 547 461 539 q 435 553 451 553 l 201 553 l 156 553 l 136 553 q 123 560 128 556 q 115 569 118 565 q 111 582 113 574 q 110 594 110 590 q 110 609 110 599 q 110 622 110 619 l 110 685 q 117 714 110 703 q 144 725 128 725 l 161 725 l 375 725 l 635 725 l 704 725 q 719 724 714 725 q 743 696 739 718 q 744 653 744 692 l 744 597 q 719 538 742 560 q 590 415 697 517 l 403 238 q 361 199 368 206 q 360 175 346 183 q 379 174 361 174 l 614 174 l 714 174 l 732 174 q 758 147 760 165 m 447 639 q 443 663 451 644 q 425 675 438 669 q 390 663 404 682 q 386 625 375 644 q 422 611 399 607 q 440 621 432 613 q 447 639 449 629 z "},"":{"ha":833,"x_min":0,"x_max":0,"o":""},"":{"ha":833,"x_min":210,"x_max":629,"o":"m 439 1 q 408 0 429 0 q 290 43 344 1 q 221 142 238 82 q 210 206 211 176 q 221 268 210 238 q 292 368 242 328 q 413 410 340 406 q 469 403 435 411 q 529 376 506 390 q 607 278 583 338 q 614 154 629 219 q 550 51 601 96 q 500 18 526 28 q 439 1 478 10 m 417 269 q 437 277 428 268 q 449 297 446 286 q 431 331 451 319 q 393 328 411 343 q 385 289 376 314 q 417 269 393 269 z "},"":{"ha":833,"x_min":0,"x_max":0,"o":""},"":{"ha":833,"x_min":136,"x_max":739,"o":"m 738 157 q 739 143 739 156 l 739 111 l 739 35 q 731 3 739 8 q 713 0 726 0 l 611 0 l 279 0 l 169 0 q 136 18 139 0 l 136 89 l 136 232 l 136 567 l 136 675 q 136 682 136 676 q 136 689 136 688 q 137 695 136 690 q 138 702 138 700 q 141 708 139 704 q 147 713 143 711 q 154 714 150 714 l 186 714 q 203 719 200 714 q 203 733 206 724 q 197 754 200 740 q 209 806 192 781 q 254 835 226 831 q 306 825 282 839 q 336 785 329 811 q 335 738 342 756 q 331 732 333 736 q 326 724 328 728 q 325 718 324 721 q 342 714 328 710 q 347 722 343 714 q 350 729 347 725 q 354 735 353 733 q 372 754 361 746 q 421 774 394 774 q 472 758 446 775 q 493 740 486 749 q 500 728 499 732 l 504 715 q 515 713 508 713 q 524 717 522 713 q 515 736 525 721 q 514 788 506 763 q 549 828 525 814 q 601 833 571 840 q 642 803 626 828 q 653 754 657 779 q 644 731 651 743 q 644 717 642 719 q 658 714 646 714 l 697 714 q 728 699 725 714 q 729 683 729 692 q 728 663 729 674 q 728 646 728 651 l 728 575 q 711 554 728 556 l 679 554 l 610 554 l 443 554 l 388 554 q 363 549 368 554 q 358 535 358 544 l 358 501 l 358 467 q 364 451 358 458 q 388 449 368 449 l 447 449 l 614 449 l 672 449 q 697 442 690 449 q 701 401 701 438 l 701 325 q 699 311 701 315 q 685 303 694 303 l 656 303 l 499 303 l 421 303 q 408 303 417 303 q 391 303 399 303 q 378 303 383 303 q 358 285 360 300 l 358 225 l 358 190 q 361 176 358 181 q 383 168 367 168 l 511 168 l 674 168 l 718 168 q 738 157 736 168 m 390 696 q 397 673 389 685 q 417 660 406 661 q 451 676 439 657 q 451 713 464 694 q 417 725 438 732 q 399 714 408 724 l 397 711 q 393 704 394 707 q 392 700 393 703 q 390 696 392 697 z "},"":{"ha":833,"x_min":26,"x_max":804,"o":"m 800 24 q 799 11 804 18 q 788 1 794 4 q 769 0 782 0 l 613 0 q 592 4 601 0 q 578 14 583 8 q 567 31 572 19 q 560 47 563 42 q 554 67 558 53 q 549 86 550 82 q 510 119 540 117 l 457 119 l 361 119 l 314 119 q 282 99 292 115 q 266 58 272 82 q 253 22 260 33 q 213 0 239 0 l 135 0 l 57 0 q 39 3 44 0 q 32 29 26 11 q 35 38 33 32 q 38 46 38 43 q 56 90 40 51 l 181 426 q 233 565 199 475 q 279 688 267 654 q 294 711 285 703 q 336 725 310 725 l 499 725 q 553 685 539 725 l 590 586 l 724 232 l 778 86 q 786 65 781 79 q 794 43 792 50 q 797 34 794 42 q 800 24 800 26 m 383 639 q 393 621 383 629 q 414 611 403 613 q 433 617 424 610 q 446 632 443 624 q 436 668 454 653 q 400 672 419 685 q 383 639 383 664 m 485 297 q 481 315 485 307 q 471 349 475 338 q 455 402 465 368 q 440 450 444 436 q 435 467 439 456 q 429 488 432 479 q 424 504 426 497 q 413 518 414 518 q 403 504 407 518 q 358 356 386 456 q 343 308 347 325 q 347 285 340 294 q 368 276 354 276 l 449 276 l 468 276 q 479 285 476 279 q 483 292 482 288 q 485 297 483 296 z "},"":{"ha":833,"x_min":106,"x_max":774,"o":"m 769 239 q 767 164 774 197 q 739 94 760 125 q 683 44 721 67 q 528 1 618 6 q 390 0 482 0 l 169 0 q 125 4 132 0 q 106 42 106 15 l 106 186 l 106 425 l 106 632 l 106 683 q 125 721 106 710 q 161 725 132 725 l 238 725 l 472 725 l 660 725 q 696 721 689 725 q 715 657 715 708 l 715 604 q 707 578 715 590 q 663 567 697 567 l 446 567 l 368 567 q 331 540 335 567 q 329 499 329 533 q 332 464 329 471 q 340 454 335 458 q 349 448 344 450 q 360 445 353 446 q 372 444 368 444 q 385 444 375 444 q 396 444 394 444 q 558 438 504 444 q 706 376 654 425 q 769 239 763 321 m 382 646 q 390 625 381 635 q 411 614 400 615 q 444 632 435 614 q 439 669 457 654 q 403 677 425 686 q 382 646 381 668 m 549 232 q 513 286 550 269 q 446 299 492 296 l 375 299 q 332 281 342 299 q 329 258 329 274 l 329 215 q 343 164 329 174 q 358 157 350 158 q 384 156 367 156 q 403 157 401 157 q 423 156 410 157 q 447 156 436 156 q 465 157 457 156 q 524 176 503 163 q 549 232 543 192 z "},"":{"ha":833,"x_min":113,"x_max":775,"o":"m 771 219 q 767 161 775 196 q 707 60 753 97 q 657 25 679 35 q 600 11 647 21 q 356 0 536 0 l 175 0 l 142 0 q 113 35 115 3 l 113 118 l 113 297 l 113 651 l 113 688 q 126 717 115 707 q 160 725 135 725 l 224 725 l 419 725 l 474 726 q 528 725 528 728 q 649 697 613 719 q 729 599 717 656 q 724 475 749 526 q 689 426 711 449 l 678 415 l 665 408 q 653 401 664 407 q 640 392 643 396 q 651 376 632 381 q 679 365 664 372 q 728 329 714 347 q 771 219 771 279 m 383 651 q 389 629 378 644 q 408 617 397 618 q 444 631 431 611 q 443 668 457 650 q 408 681 429 688 q 383 651 382 672 m 326 474 q 342 447 326 457 q 367 442 349 442 l 439 442 q 490 454 467 442 q 517 497 511 465 q 508 547 521 526 q 467 574 494 569 q 418 576 436 576 l 375 576 q 353 575 360 576 q 326 539 329 568 l 326 474 m 546 238 q 513 289 550 271 q 449 303 489 303 l 371 303 q 329 281 336 303 q 326 257 326 274 l 326 208 q 346 163 326 174 q 369 160 354 160 l 417 160 q 475 161 465 160 q 529 183 515 167 q 546 238 546 203 z "},"":{"ha":833,"x_min":210,"x_max":776,"o":"m 776 699 l 776 681 l 776 643 l 776 565 q 761 525 776 538 q 740 513 753 517 q 719 508 726 508 q 690 508 711 507 q 667 508 669 508 l 494 508 l 458 508 q 438 499 446 508 q 429 475 429 489 q 428 413 428 475 l 429 350 l 429 201 l 429 111 l 429 35 q 414 6 429 18 q 381 1 407 1 l 294 1 q 276 1 292 1 q 252 1 260 0 q 233 4 244 1 q 215 15 221 7 q 210 35 210 22 l 210 257 l 210 607 l 210 689 q 229 721 210 713 q 256 724 238 724 l 567 724 l 714 724 l 743 724 q 765 717 754 724 q 776 699 776 710 m 451 651 q 444 672 453 663 q 422 682 435 681 q 391 665 401 685 q 394 628 381 646 q 431 619 408 613 q 451 651 453 631 z "},"":{"ha":833,"x_min":7,"x_max":831,"o":"m 828 263 l 828 242 l 828 197 l 828 76 q 829 58 828 74 q 829 33 831 43 q 824 15 828 22 q 810 5 819 8 q 795 1 801 1 q 775 1 789 0 q 758 1 761 1 l 699 1 q 671 3 674 1 q 658 11 663 6 q 651 26 653 17 q 648 41 649 35 q 648 59 647 47 q 649 74 649 71 q 643 107 649 99 q 615 122 636 119 q 586 124 601 124 q 551 123 571 124 q 522 122 532 122 l 456 122 l 281 122 l 225 122 q 199 113 206 119 q 187 91 189 104 q 187 60 185 78 q 188 35 189 42 q 171 6 185 13 q 143 1 164 1 l 42 1 q 17 11 26 1 q 7 36 7 21 l 7 126 l 7 238 l 7 258 q 31 286 11 279 q 49 288 33 288 l 65 292 q 93 319 88 301 q 114 397 106 356 q 131 478 129 474 q 133 504 132 490 q 136 535 135 518 q 139 563 138 553 q 144 718 144 614 l 144 779 l 144 811 q 182 844 147 844 l 338 844 l 585 844 l 679 844 l 697 844 q 717 844 717 846 q 750 808 750 842 l 750 757 l 750 525 l 750 333 q 767 293 750 303 q 783 288 772 290 l 793 289 q 803 288 803 289 q 828 263 828 281 m 386 761 q 392 738 381 753 q 410 726 399 729 q 444 739 431 719 q 446 776 458 758 q 413 790 432 794 q 393 781 401 789 q 386 761 385 772 m 528 633 q 519 656 528 644 q 481 667 508 667 l 403 667 q 361 665 375 667 q 350 664 353 665 q 349 657 349 664 q 347 632 347 649 q 339 524 347 596 q 321 406 332 458 l 311 350 q 307 303 301 314 q 339 288 313 288 l 411 288 l 483 288 q 518 299 510 288 q 528 328 528 308 l 528 376 l 528 633 z "},"":{"ha":833,"x_min":129,"x_max":733,"o":"m 732 14 l 732 13 q 731 10 731 11 l 731 8 l 729 8 l 725 4 l 725 3 l 724 1 l 721 1 l 719 0 l 144 0 l 142 1 l 140 1 l 138 3 l 136 3 l 129 10 l 129 707 l 136 714 l 139 715 l 140 717 l 147 717 l 321 717 l 611 717 l 696 717 l 710 717 q 724 697 724 715 q 724 659 724 683 q 724 615 724 635 q 724 578 724 594 q 723 574 724 576 q 722 571 722 572 q 711 556 719 563 l 710 554 l 708 554 l 707 553 l 704 551 l 700 551 l 688 551 l 422 551 l 376 551 l 361 551 q 357 550 358 551 q 350 519 347 546 q 351 467 350 475 q 371 450 356 453 l 400 450 l 536 450 l 661 450 l 682 450 q 696 429 696 449 l 696 365 q 697 351 696 360 q 697 334 697 342 q 696 321 697 326 q 692 311 696 315 l 692 310 l 689 307 l 686 306 l 683 306 l 681 304 l 676 304 l 647 304 l 386 304 l 365 304 q 360 301 363 304 q 351 282 351 294 l 351 217 l 351 190 q 354 181 351 189 q 364 171 358 172 q 372 169 367 169 l 407 169 l 543 169 l 679 169 l 719 169 l 721 169 q 724 168 722 168 q 732 160 731 167 q 733 126 733 158 l 733 56 q 732 14 733 18 m 393 657 l 392 654 l 390 653 q 388 639 388 649 q 394 619 386 628 q 414 608 403 611 l 428 608 l 431 611 l 436 614 l 442 619 l 443 621 l 443 624 l 444 628 l 446 631 l 447 635 l 447 642 l 446 646 l 444 649 l 443 653 l 443 654 l 442 657 l 436 663 l 433 664 l 431 667 l 426 668 l 424 668 q 394 658 404 671 l 393 657 z "},"":{"ha":833,"x_min":8,"x_max":832,"o":"m 826 53 q 814 8 832 21 q 763 1 803 1 l 682 1 q 644 28 656 4 q 626 85 643 31 q 615 125 622 99 q 604 164 607 151 q 594 191 601 174 q 586 211 588 208 q 560 257 576 240 q 546 267 554 264 q 528 250 535 269 q 526 206 526 246 l 526 42 q 510 4 526 14 q 458 1 504 1 l 367 1 q 322 10 329 1 q 314 51 314 19 l 314 135 l 314 219 q 307 260 314 250 q 296 267 301 267 q 284 262 290 268 q 273 249 278 256 q 263 231 268 242 q 255 215 257 221 q 250 204 253 210 q 244 190 249 199 q 238 173 240 181 q 233 158 235 165 q 210 74 229 142 q 192 22 193 25 q 151 1 178 1 l 65 1 q 21 14 32 1 q 15 67 8 28 q 29 128 24 108 q 44 162 33 140 q 57 190 54 183 q 81 244 64 208 q 91 271 83 251 q 104 300 99 290 q 133 349 131 346 q 140 356 136 351 q 147 363 143 360 q 153 368 150 365 q 164 376 156 369 q 175 385 172 382 q 176 399 178 394 q 165 413 174 404 q 154 424 156 421 q 125 465 132 449 q 115 492 121 474 q 104 519 108 511 q 71 567 90 549 q 47 576 61 576 q 26 583 29 579 q 24 600 24 588 l 24 636 l 24 703 q 38 725 26 718 q 67 729 43 729 q 128 724 117 726 q 215 647 182 713 q 231 612 224 631 q 245 569 238 593 q 257 532 253 544 q 279 482 268 497 q 310 479 297 457 q 314 522 314 489 l 314 613 l 314 685 q 331 722 314 715 q 383 725 336 725 l 475 725 q 518 715 510 725 q 526 674 526 706 l 526 508 q 536 471 526 475 q 567 493 547 465 q 582 527 575 508 q 595 572 589 546 q 606 608 601 597 q 672 706 629 675 q 724 726 699 725 l 782 731 q 815 697 815 731 l 815 622 q 808 579 815 585 q 801 577 806 578 q 792 576 797 576 q 785 575 788 575 q 764 563 772 572 q 756 553 764 561 q 746 540 749 546 q 732 513 740 532 q 722 487 728 504 q 713 461 717 469 q 681 418 699 436 q 673 410 679 415 q 664 400 667 404 q 672 379 660 390 q 711 340 700 357 q 740 289 724 325 q 788 179 750 268 q 826 53 826 93 m 453 651 q 445 672 454 663 q 425 683 436 681 q 392 668 406 688 q 394 629 378 650 q 432 619 408 610 q 453 651 457 629 z "},"":{"ha":833,"x_min":90,"x_max":715,"o":"m 711 272 q 708 192 715 228 q 615 56 688 103 q 453 1 543 8 q 279 15 343 -4 q 139 110 189 39 q 99 189 118 139 q 100 225 90 215 q 125 235 106 232 l 240 243 q 268 244 260 246 q 300 226 285 244 q 310 212 303 224 q 325 196 318 200 q 358 176 332 189 q 438 178 396 163 q 489 235 481 192 q 490 271 492 263 q 469 300 489 283 q 400 331 439 326 q 363 332 388 332 q 328 340 336 332 q 318 374 318 351 l 318 418 q 342 443 324 442 q 363 443 349 444 q 383 443 376 442 q 447 483 432 451 q 450 560 469 528 q 378 586 431 589 q 310 553 328 583 q 254 522 288 518 q 140 536 213 528 q 115 544 122 539 q 108 576 100 557 q 153 651 126 621 q 217 706 182 685 q 299 738 243 721 q 386 747 333 747 q 468 742 422 749 q 622 676 568 726 q 668 604 654 647 q 674 524 679 575 q 640 449 667 479 q 611 421 635 440 q 601 407 601 414 q 613 396 604 399 q 630 387 618 393 q 649 376 642 381 q 681 347 676 353 q 711 272 704 318 m 451 660 q 443 681 453 671 q 422 692 433 690 q 389 673 400 693 q 393 638 378 653 q 432 629 410 618 q 451 660 454 638 z "},"":{"ha":833,"x_min":69,"x_max":763,"o":"m 761 701 q 763 664 763 699 l 763 450 l 763 174 l 763 33 q 744 4 763 15 q 714 0 735 0 l 593 0 q 553 35 553 0 l 553 119 l 553 343 q 551 357 553 351 q 543 361 549 363 q 526 339 536 358 l 460 231 q 360 65 426 176 q 315 10 332 19 q 240 0 297 0 l 115 0 q 89 6 97 0 q 72 33 72 14 q 71 104 69 33 l 72 175 l 72 450 l 72 664 q 75 703 72 697 q 85 716 79 711 q 99 722 90 721 q 114 724 108 724 q 131 724 119 725 q 147 724 143 724 q 179 724 158 724 q 217 724 200 724 q 250 724 235 724 q 281 701 272 721 q 282 679 282 697 l 282 438 l 282 371 q 290 360 286 358 q 301 369 297 360 q 319 400 304 374 l 385 507 q 392 525 393 522 q 387 533 392 529 q 375 539 382 536 q 365 543 368 542 q 327 618 326 569 q 365 693 328 667 q 428 710 393 714 q 468 696 450 707 q 474 692 471 694 q 482 685 478 689 q 489 679 486 681 q 508 706 500 699 q 536 721 528 718 q 578 724 546 724 l 664 724 l 728 724 q 761 701 750 724 m 451 622 q 442 642 450 633 q 422 650 433 650 q 390 632 399 653 q 396 597 381 611 q 432 590 413 581 q 451 622 451 599 z "},"":{"ha":833,"x_min":69,"x_max":758,"o":"m 581 721 l 732 721 q 750 713 742 721 q 758 694 758 706 l 758 26 q 750 8 758 17 q 732 0 742 0 l 576 0 q 557 8 565 0 q 549 26 549 15 l 549 382 q 544 395 549 393 q 533 388 539 397 l 346 43 l 335 22 q 293 0 319 0 l 96 0 q 77 8 85 0 q 69 26 69 15 l 69 694 q 77 713 69 706 q 96 721 85 721 l 251 721 q 271 713 263 721 q 279 694 279 706 l 279 336 q 284 323 279 325 q 294 331 289 321 l 419 547 l 482 653 q 481 660 485 657 q 474 663 478 664 q 419 656 446 656 q 297 696 350 656 q 250 763 250 735 q 263 791 250 778 q 293 804 275 804 q 344 772 319 804 l 350 767 q 357 768 353 764 q 393 799 369 790 q 440 800 417 808 q 478 767 467 792 q 482 763 479 764 q 486 765 485 763 q 493 772 490 768 q 546 804 518 804 q 577 786 565 804 q 582 749 589 768 q 575 731 581 742 q 581 721 568 721 m 442 732 q 437 750 443 742 q 421 760 431 758 q 392 738 397 763 q 414 710 389 713 q 442 732 439 707 z "},"":{"ha":833,"x_min":118,"x_max":803,"o":"m 797 25 q 797 10 803 17 q 782 1 792 3 l 761 1 l 646 1 q 576 4 585 1 q 544 24 558 8 q 528 60 542 26 q 493 140 506 113 l 464 210 q 440 265 450 239 q 428 289 429 286 q 396 290 411 308 q 364 256 383 278 q 346 226 353 244 q 342 194 342 217 l 342 122 l 342 63 q 342 53 342 60 q 342 42 342 47 q 342 32 342 36 q 319 3 339 10 q 294 1 317 1 l 179 1 q 171 1 176 1 q 162 1 165 1 q 153 1 158 1 q 146 2 149 1 q 139 4 143 3 q 132 8 135 6 q 126 13 129 10 q 122 21 124 17 q 118 56 118 29 l 118 235 l 118 485 l 118 667 q 119 699 118 693 q 144 724 124 719 q 153 724 149 724 q 162 724 157 724 q 169 724 167 724 l 285 724 q 292 724 286 724 q 300 724 297 724 q 308 724 303 724 q 315 723 313 724 q 321 722 317 722 q 327 719 325 721 q 332 715 329 717 q 337 710 335 713 q 340 703 339 707 q 343 696 342 697 q 351 694 346 694 q 360 701 354 696 q 367 707 365 706 q 403 721 381 717 q 472 700 442 728 q 483 685 483 686 q 489 678 486 683 q 493 669 492 672 q 508 665 499 665 q 521 669 517 665 q 533 686 526 674 q 543 703 539 699 q 576 721 560 715 q 603 724 586 724 l 653 724 l 749 724 q 774 711 768 724 q 765 683 776 706 q 742 651 758 671 q 722 625 726 631 q 650 524 685 571 q 631 495 646 518 q 606 461 615 472 q 599 407 585 439 q 622 363 608 386 l 731 154 q 778 64 732 151 q 792 38 789 42 l 794 32 q 797 25 796 26 m 446 639 q 439 660 447 650 q 419 671 431 669 q 387 655 399 674 q 389 618 375 636 q 426 609 403 601 q 446 639 449 617 m 428 547 q 404 558 429 553 q 368 568 379 561 q 344 572 347 581 q 343 543 343 569 q 342 515 343 533 q 342 488 342 497 q 343 458 342 464 q 365 456 354 446 q 385 485 375 467 l 415 526 q 428 547 428 543 z "},"":{"ha":833,"x_min":51,"x_max":782,"o":"m 778 25 q 778 12 782 18 q 768 3 775 6 q 750 1 765 1 l 576 1 q 536 31 547 1 q 518 89 529 50 q 494 165 510 115 q 471 236 478 214 l 443 322 q 431 363 435 350 l 422 379 q 409 374 414 383 q 403 354 404 365 l 378 281 q 347 186 369 254 q 313 82 325 118 l 296 29 q 258 1 288 4 l 193 1 l 90 1 q 82 1 89 1 q 72 1 75 1 q 63 3 68 1 q 56 7 58 4 q 53 15 53 10 q 58 40 51 21 q 82 106 67 63 q 106 169 97 149 l 247 565 q 270 626 256 586 q 292 686 285 667 q 307 711 296 701 q 360 721 319 721 l 464 721 q 521 718 515 721 q 544 690 539 707 q 558 651 553 665 l 688 283 q 778 25 717 197 m 449 626 q 442 649 454 636 q 424 661 436 657 q 388 647 401 667 q 388 610 374 628 q 422 597 404 592 q 449 626 449 603 z "},"":{"ha":833,"x_min":31,"x_max":801,"o":"m 800 697 q 801 683 801 693 l 801 653 l 801 392 l 801 106 l 801 38 q 794 15 799 22 q 763 1 783 1 l 642 1 q 611 24 619 1 q 608 49 608 32 l 608 317 l 608 342 q 606 351 608 347 q 597 353 603 354 q 585 340 593 353 q 576 315 579 333 l 556 253 q 535 187 549 231 q 514 121 521 143 q 504 94 507 100 q 465 68 493 74 l 414 68 q 365 69 381 68 q 326 97 340 71 q 317 124 324 103 l 275 256 q 253 321 264 285 l 244 350 q 231 354 239 358 q 222 342 222 350 l 222 314 l 222 174 l 222 47 q 219 22 222 31 q 188 1 211 1 l 65 1 q 31 39 31 1 l 31 243 l 31 549 l 31 657 q 32 703 31 699 q 40 718 35 713 q 56 725 46 724 q 72 727 65 726 q 90 727 78 728 q 106 726 103 726 l 242 726 q 272 718 261 726 q 286 701 282 713 q 289 695 288 699 q 292 688 290 692 q 294 681 293 683 q 299 667 296 678 q 305 648 301 656 q 314 639 308 640 q 328 647 324 635 q 333 657 329 650 q 339 668 336 664 q 419 711 371 713 q 497 660 472 707 l 497 658 q 518 639 508 632 q 521 644 519 640 q 524 652 522 647 q 526 658 525 657 q 531 672 528 661 q 536 690 535 683 q 564 722 543 714 q 596 728 575 728 q 736 726 643 726 l 771 726 q 792 717 782 725 q 800 697 801 708 m 383 614 q 394 594 383 603 q 414 585 404 585 q 445 606 436 585 q 438 642 454 628 q 400 646 419 658 q 383 614 383 638 m 492 549 q 480 551 488 556 q 467 542 472 547 q 400 526 433 521 q 367 540 390 529 l 351 551 q 347 557 350 553 q 344 558 346 558 l 342 558 q 339 547 338 556 q 340 542 339 546 q 342 536 340 538 l 363 475 q 404 349 376 432 q 414 324 408 326 q 419 324 417 322 q 422 330 421 326 q 424 336 424 333 q 426 342 425 339 l 464 463 q 473 490 467 469 q 483 522 479 511 q 492 549 492 544 z "},"":{"ha":833,"x_min":75,"x_max":769,"o":"m 768 700 q 769 683 769 697 l 769 654 l 769 382 l 769 93 l 769 36 q 753 6 769 14 q 717 0 743 0 l 582 0 q 550 17 558 3 q 544 49 544 25 l 544 192 l 544 251 q 539 281 544 272 q 506 294 528 294 l 446 294 l 332 294 q 315 290 322 294 q 305 278 308 285 q 300 261 301 272 q 298 243 299 250 q 298 224 297 236 q 299 208 299 211 l 299 103 l 299 49 q 285 7 299 17 q 250 0 275 0 l 176 0 l 114 0 q 83 15 92 3 q 75 64 75 25 l 75 326 l 75 622 l 75 690 q 119 728 75 728 l 257 728 q 289 718 278 728 q 299 696 299 708 q 299 683 299 693 q 300 674 299 674 l 324 674 q 344 685 326 675 q 371 704 350 689 q 415 715 389 715 q 442 711 429 715 q 482 686 465 706 q 503 642 499 667 q 497 590 508 615 q 463 550 485 564 q 379 544 417 525 q 357 558 365 550 q 335 574 340 572 q 318 575 329 575 l 300 575 l 300 572 q 299 569 300 571 l 299 507 q 361 472 300 472 l 503 472 q 533 482 524 472 q 544 514 544 493 l 544 656 q 544 669 544 658 q 544 684 544 679 q 546 697 544 689 q 550 710 547 706 q 558 720 553 715 q 572 726 564 725 q 613 728 578 728 l 692 728 l 736 728 q 758 719 747 726 q 768 700 769 711 m 381 626 q 389 606 379 615 q 410 593 399 596 q 443 608 429 589 q 440 647 456 626 q 403 657 426 665 q 381 626 379 649 z "},"":{"ha":833,"x_min":28,"x_max":789,"o":"m 788 428 q 789 371 789 408 q 732 144 789 232 q 551 17 664 43 q 436 0 485 0 q 319 8 367 0 q 263 21 293 13 q 208 44 244 28 q 119 118 163 64 q 63 218 85 161 q 40 335 46 264 q 81 572 28 472 q 151 664 108 625 q 254 725 190 699 q 492 744 357 764 q 699 646 629 725 l 721 621 q 729 608 724 617 q 736 597 735 600 q 763 543 756 568 q 779 488 774 515 q 788 428 786 458 m 378 660 q 385 640 376 649 q 406 628 394 631 q 440 643 425 622 q 444 661 444 649 q 438 679 444 672 q 422 692 433 688 q 401 692 411 696 q 384 679 392 689 q 378 660 376 669 m 567 383 q 566 397 567 389 q 565 411 565 406 q 536 519 563 472 q 442 578 507 568 q 333 558 378 588 q 271 465 288 529 q 263 350 257 417 q 288 239 268 276 q 375 172 319 182 q 486 183 440 160 q 553 269 535 207 q 567 383 560 290 z "},"":{"ha":833,"x_min":69,"x_max":763,"o":"m 761 92 l 761 63 q 761 33 763 33 q 744 6 758 13 q 710 0 736 0 l 575 0 q 548 11 558 0 q 538 39 538 22 l 538 290 l 538 439 l 538 511 q 518 543 538 535 q 483 546 511 546 l 339 546 q 307 539 317 546 q 293 510 293 532 l 293 486 l 293 411 l 293 251 l 293 183 l 293 146 l 293 35 q 292 32 293 33 q 291 26 292 29 q 290 21 290 22 q 275 4 283 10 q 240 0 268 0 l 167 0 l 107 0 q 75 15 85 0 q 69 64 69 22 l 69 328 l 69 621 l 69 688 q 80 713 69 703 q 106 722 90 722 l 310 722 l 621 722 l 713 722 l 726 722 q 747 715 738 722 q 760 697 750 713 q 761 681 761 694 l 761 651 l 761 381 l 761 92 m 447 643 q 438 663 449 654 q 417 672 428 671 q 386 652 394 674 q 394 615 378 631 q 431 611 410 600 q 447 643 447 621 z "},"":{"ha":833,"x_min":147,"x_max":764,"o":"m 763 517 q 760 461 764 507 q 746 403 758 438 q 717 353 736 382 q 625 289 690 313 q 511 269 576 272 l 444 269 q 390 265 397 269 q 372 224 372 256 l 372 165 l 372 90 q 373 73 372 85 q 374 51 374 61 q 372 33 374 42 q 356 6 371 15 q 311 0 346 0 l 225 0 q 209 0 219 0 q 191 0 199 0 q 176 0 183 0 q 147 35 147 6 l 147 53 l 147 169 l 147 526 l 147 658 q 158 718 147 708 q 192 726 169 726 l 250 726 l 428 726 q 469 727 435 726 q 517 727 504 728 q 557 724 531 726 q 603 717 583 722 q 643 706 624 713 q 731 632 700 685 q 763 517 763 579 m 388 649 q 396 628 386 638 q 417 615 406 618 q 450 633 439 613 q 447 671 461 654 q 410 681 431 690 q 394 667 401 678 q 388 649 386 657 m 544 503 q 517 558 546 533 q 460 578 496 575 q 408 579 439 583 q 374 550 378 575 q 372 485 372 540 q 378 431 372 439 q 399 417 388 418 l 428 417 q 483 422 460 417 q 531 453 513 429 q 544 503 544 472 z "},"":{"ha":833,"x_min":42,"x_max":743,"o":"m 740 236 q 735 200 743 232 q 719 165 728 183 q 613 44 678 85 q 535 14 576 24 q 451 1 507 7 l 368 1 q 285 15 331 3 q 204 47 233 28 q 140 100 167 69 q 90 169 113 131 q 60 246 76 192 q 44 332 50 274 q 44 418 42 376 q 90 588 51 508 q 208 706 125 657 q 376 750 271 742 q 547 733 475 754 q 685 638 628 708 q 726 567 704 613 q 728 532 738 544 q 704 517 722 521 q 593 493 668 510 q 535 507 546 481 q 494 558 524 533 q 460 576 479 569 q 421 582 451 579 q 340 563 379 589 q 310 536 322 550 q 288 500 304 529 q 269 417 279 482 q 269 331 265 374 q 333 188 279 217 q 371 172 365 174 l 413 168 q 489 190 453 168 q 535 253 515 208 q 541 269 536 256 q 550 289 546 282 q 585 300 563 306 q 681 272 596 299 q 697 267 682 272 q 717 260 711 263 q 730 251 722 258 q 740 236 738 244 m 393 657 q 403 637 392 646 q 426 629 415 628 q 457 651 450 629 q 446 688 464 672 q 408 690 431 703 q 393 657 393 681 z "},"":{"ha":833,"x_min":74,"x_max":756,"o":"m 754 700 q 756 679 756 697 l 756 635 q 754 572 756 579 q 717 546 749 546 l 563 546 q 526 517 531 546 l 526 490 l 526 335 l 526 33 q 496 0 526 3 l 435 0 l 346 0 q 307 17 317 0 q 301 47 301 26 l 301 104 l 301 290 l 301 467 q 302 486 301 469 q 302 510 303 503 q 297 528 301 518 q 283 543 293 538 q 232 546 278 546 l 136 546 q 89 553 100 546 q 74 596 74 561 l 74 685 q 97 724 74 714 q 121 725 100 725 l 172 725 l 544 725 l 692 725 l 721 725 q 738 721 729 725 q 747 713 743 719 q 751 706 750 710 q 754 700 753 701 m 449 650 q 440 671 450 661 q 418 682 429 681 q 385 664 396 685 q 390 626 375 643 q 428 619 406 610 q 449 650 450 628 z "},"":{"ha":833,"x_min":90,"x_max":742,"o":"m 738 724 q 735 699 742 717 q 694 586 724 668 q 650 460 665 504 l 554 194 q 549 178 553 192 q 542 160 544 165 q 536 144 540 156 q 530 127 532 132 q 523 111 528 122 q 515 94 518 100 q 506 79 511 89 q 495 63 500 69 q 484 50 490 57 q 471 36 478 43 q 368 1 438 4 l 264 1 q 213 4 246 1 q 197 6 208 6 q 177 8 186 6 q 163 14 168 10 q 144 50 144 25 l 144 122 q 164 157 144 149 q 211 156 172 160 l 263 156 q 314 168 292 156 q 331 244 353 193 q 310 286 324 260 q 292 321 296 313 l 143 611 q 121 655 136 625 q 97 700 106 685 q 93 724 90 717 q 126 736 97 736 l 275 736 q 310 732 299 736 q 339 688 331 722 l 351 704 l 368 717 q 461 721 417 746 q 492 694 482 708 q 501 674 494 689 q 505 686 501 675 q 510 702 508 697 q 517 715 513 707 q 528 725 522 722 q 564 736 546 736 l 632 736 l 704 736 q 738 724 731 736 m 385 639 q 392 619 383 628 q 413 607 401 610 q 445 625 435 604 q 440 661 456 646 q 404 669 425 678 q 385 639 383 661 m 435 451 q 467 556 444 486 q 444 551 465 556 q 422 549 431 549 q 400 549 413 547 q 392 551 399 549 q 381 554 385 554 l 407 469 l 415 444 q 435 451 424 435 z "},"":{"ha":833,"x_min":14,"x_max":813,"o":"m 808 436 q 813 374 813 406 q 800 257 813 307 q 735 150 781 192 q 625 94 699 115 q 565 81 603 88 q 522 54 532 75 q 520 40 521 50 q 519 28 519 31 q 506 7 514 13 q 485 0 494 0 l 458 0 l 371 0 q 329 8 339 0 q 318 29 321 15 q 317 43 317 33 q 315 57 317 53 q 268 83 308 75 q 149 118 206 94 q 63 197 94 143 q 28 314 32 250 q 68 554 14 475 q 161 629 104 603 q 283 664 221 656 q 317 694 313 669 q 351 722 319 722 l 486 722 q 519 697 515 722 q 531 674 522 682 q 554 664 540 665 q 671 631 618 656 q 769 551 735 604 q 797 494 789 521 q 808 436 803 478 m 451 651 q 442 672 454 660 q 422 679 432 679 q 389 660 399 681 q 396 622 379 639 q 433 617 413 607 q 451 651 451 625 m 632 375 q 574 499 629 453 q 522 506 533 531 q 521 461 521 503 l 521 276 q 529 239 521 244 q 583 261 546 228 q 618 311 608 283 q 628 342 626 331 q 630 358 629 347 q 632 375 631 369 m 317 494 q 310 508 318 503 q 294 514 303 514 q 267 499 283 513 q 224 446 240 476 q 211 328 194 394 q 240 275 218 301 q 264 253 253 261 q 292 236 282 238 q 315 249 310 232 q 317 265 317 254 l 317 344 l 317 494 z "},"":{"ha":833,"x_min":32,"x_max":800,"o":"m 796 19 q 792 6 800 11 q 774 0 783 1 l 718 0 l 639 0 q 622 0 636 0 q 602 0 607 0 q 586 1 597 0 q 568 6 575 3 q 554 15 561 10 q 524 54 553 15 q 511 74 521 58 q 496 99 501 90 q 440 185 451 165 q 403 200 425 211 q 369 158 389 193 l 315 71 q 302 50 311 65 q 288 28 293 35 q 246 3 274 8 q 210 0 235 0 l 135 0 l 67 0 q 38 8 43 0 q 43 35 32 18 l 65 68 l 232 310 q 256 344 243 325 q 267 367 265 360 q 247 429 272 394 q 86 665 103 640 q 79 674 86 667 q 69 688 72 682 q 61 701 65 693 q 58 714 57 708 q 64 724 58 719 q 99 728 71 728 l 172 728 l 236 728 q 271 719 254 728 q 300 689 290 708 q 318 660 307 679 q 332 636 329 642 q 334 641 333 638 q 335 646 335 644 q 350 669 340 658 q 440 693 388 707 q 479 669 461 688 q 501 629 488 661 l 513 649 q 544 704 538 694 q 589 728 561 725 l 633 728 l 717 728 q 760 726 753 728 q 769 697 783 721 q 710 610 756 675 q 617 471 661 535 q 595 439 613 464 q 569 400 578 414 q 568 353 558 379 l 582 332 q 658 221 626 269 q 751 88 690 176 l 782 42 q 796 19 796 28 m 449 613 q 421 643 450 636 q 388 626 399 646 q 392 589 376 604 q 428 581 407 571 q 449 613 449 592 z "},"":{"ha":833,"x_min":86,"x_max":831,"o":"m 829 261 q 831 226 831 258 l 831 153 l 831 71 l 831 35 q 824 15 829 22 q 806 4 818 7 q 785 1 793 1 q 760 1 776 0 q 740 1 744 1 q 720 1 736 1 q 697 1 704 0 q 677 4 689 1 q 659 14 665 7 q 651 33 653 21 q 650 51 650 42 q 651 71 650 60 q 651 88 651 82 q 642 110 651 100 q 621 122 633 121 l 550 122 l 401 122 l 128 122 q 98 133 110 122 q 86 160 86 143 l 86 235 l 86 557 l 86 801 q 89 822 86 815 q 124 846 97 846 l 189 846 l 254 846 q 289 825 279 843 q 290 800 290 822 l 290 686 l 290 372 l 290 339 q 311 311 292 324 q 350 300 326 300 l 415 300 l 493 300 q 531 306 522 300 q 541 316 538 310 q 546 331 544 322 q 548 344 547 339 q 548 361 549 350 q 547 376 547 372 l 547 679 l 547 704 l 531 704 l 521 704 q 499 693 515 703 q 457 667 464 669 q 411 664 429 658 q 342 725 354 676 q 368 824 325 786 q 464 839 408 857 q 486 825 476 832 q 510 810 500 811 q 528 808 513 808 l 546 808 q 547 815 547 808 q 582 846 551 843 l 635 846 l 710 846 q 744 833 733 846 q 753 804 753 824 l 753 696 l 753 385 l 753 354 q 756 314 753 319 q 771 294 760 301 q 794 289 781 289 q 815 282 808 289 q 829 261 831 271 m 461 754 q 453 775 463 765 q 432 786 443 785 q 400 768 410 789 q 406 732 390 747 q 439 724 419 717 q 461 754 464 733 z "},"":{"ha":833,"x_min":24,"x_max":679,"o":"m 679 296 l 679 85 q 679 72 679 82 q 679 58 679 63 q 678 44 679 54 q 676 30 678 35 q 672 18 675 25 q 665 8 669 11 q 655 3 661 6 q 640 0 649 0 l 528 0 l 492 0 q 456 39 456 0 l 456 178 l 456 194 l 456 211 q 451 229 456 224 q 431 235 447 235 q 407 233 424 235 q 382 229 390 231 q 350 229 367 229 q 313 229 333 229 q 282 229 293 229 q 266 230 275 229 q 246 232 257 231 q 229 233 235 233 q 181 243 200 236 q 94 296 138 257 q 24 475 24 358 l 24 593 l 24 664 q 25 694 24 690 q 33 712 28 706 q 49 720 39 718 q 67 723 60 722 q 88 723 74 724 q 106 722 101 722 l 181 722 q 215 717 207 722 q 231 683 231 707 l 231 628 l 231 513 q 239 467 231 497 q 264 429 250 440 q 356 410 299 406 l 382 414 q 406 422 404 421 q 443 450 433 435 q 456 549 456 472 q 435 542 453 546 q 414 539 421 539 q 383 544 394 539 q 328 603 340 563 q 339 685 314 651 q 408 722 367 721 q 446 718 421 724 q 463 708 463 713 q 478 719 471 717 q 493 722 483 722 l 608 722 q 622 723 611 722 q 639 723 633 724 q 653 721 644 722 q 668 716 663 719 q 678 706 674 713 l 679 703 l 679 688 l 679 657 l 679 560 l 679 296 m 390 610 q 427 601 406 593 q 447 632 449 610 q 439 653 450 642 q 419 663 432 660 q 387 645 399 665 q 390 610 375 625 z "},"":{"ha":833,"x_min":29,"x_max":806,"o":"m 804 75 q 805 61 804 72 q 806 43 806 50 q 803 27 806 36 q 797 14 801 18 q 739 1 786 1 l 438 1 l 117 1 l 60 1 q 29 57 29 7 l 29 351 l 29 660 l 29 686 q 46 718 31 706 q 93 724 53 724 l 175 724 q 214 704 206 724 q 218 676 218 694 l 218 551 l 218 232 q 218 225 218 229 q 218 217 218 221 q 218 210 218 213 q 254 179 222 179 q 306 193 293 176 q 314 222 314 203 l 314 526 l 314 665 q 344 724 314 722 l 479 724 q 496 721 489 724 q 514 704 507 718 q 518 678 518 697 l 518 369 l 518 233 q 519 210 518 218 q 554 179 524 182 q 608 190 596 176 q 617 221 617 200 l 617 338 l 617 663 l 617 688 q 644 724 619 719 q 663 725 653 725 q 685 724 674 725 q 704 724 697 724 l 769 724 q 792 715 782 725 q 804 693 803 706 l 804 675 l 804 394 l 804 75 m 425 604 q 451 633 442 608 q 426 669 451 665 q 390 657 404 675 q 389 619 376 639 q 425 604 404 600 z "},"":{"ha":833,"x_min":13,"x_max":867,"o":"m 867 254 l 867 207 l 867 42 q 846 3 867 14 q 825 1 842 1 l 783 1 l 718 1 q 688 42 688 6 q 688 63 688 47 q 688 90 689 79 q 681 108 686 101 q 629 122 669 122 l 363 122 l 56 122 q 25 132 35 122 q 14 163 14 146 l 14 265 l 14 644 l 14 783 q 14 789 14 785 q 39 843 14 835 q 60 844 43 844 l 103 844 l 169 844 q 193 832 185 843 q 202 811 201 821 q 203 783 203 801 q 203 781 203 782 q 203 778 203 779 l 203 424 l 203 333 q 213 310 203 319 q 239 300 224 300 q 293 317 283 300 q 299 347 299 326 l 299 403 l 299 585 l 299 761 l 299 806 q 313 838 299 825 q 363 844 321 844 l 453 844 q 496 831 488 844 q 503 800 503 821 l 503 468 l 503 340 q 515 310 503 325 q 540 300 525 300 q 549 300 543 300 q 561 300 556 300 q 571 300 567 300 q 601 336 601 304 q 601 346 601 340 q 601 358 601 351 q 601 367 601 364 l 601 532 l 601 721 l 601 811 q 613 835 603 825 q 638 844 624 844 l 714 844 q 771 842 764 844 q 789 807 789 832 l 789 490 l 789 358 q 790 319 789 332 q 804 297 792 306 q 832 289 817 288 q 856 279 846 290 q 867 254 865 268 m 446 744 q 447 749 447 746 q 449 754 447 753 q 428 790 449 781 q 390 779 406 799 q 388 740 375 760 q 422 725 400 721 q 440 736 433 729 q 446 744 443 739 z "},"":{"ha":833,"x_min":43,"x_max":771,"o":"m 768 260 q 768 200 771 244 q 718 83 763 139 q 613 17 686 43 q 496 0 568 0 l 308 0 l 219 0 q 179 6 189 0 q 161 44 161 17 l 161 97 l 161 479 l 161 511 q 117 544 156 544 q 103 544 114 544 q 87 544 92 543 q 73 546 82 544 q 59 551 64 547 q 50 563 54 556 q 44 583 46 571 q 44 611 43 594 q 46 632 46 628 l 46 676 q 50 700 46 692 q 101 719 63 719 l 256 719 l 339 719 q 363 713 349 719 l 368 708 q 374 710 371 708 q 390 715 379 713 q 494 683 450 732 q 515 617 518 654 q 489 554 513 581 q 428 526 464 526 q 419 526 425 526 q 407 526 413 526 q 397 526 401 526 q 381 531 385 531 q 378 522 378 531 q 378 511 378 521 q 378 498 378 501 q 379 487 378 494 q 383 475 381 479 q 389 467 385 471 q 399 460 393 463 q 422 454 408 454 l 472 454 q 610 442 564 454 q 671 415 643 432 q 719 375 690 404 q 753 319 742 353 q 758 306 754 315 q 763 290 761 296 q 765 275 764 285 q 768 260 767 265 m 386 615 q 396 597 385 604 q 419 589 407 589 q 451 611 443 589 q 440 649 458 633 q 401 651 422 663 q 386 615 386 642 m 553 242 q 538 292 550 275 q 493 317 519 310 q 436 324 463 324 q 385 311 393 324 q 378 250 378 300 q 379 172 378 181 q 394 147 379 153 q 428 144 401 144 q 488 150 474 144 q 538 183 526 164 q 553 242 553 208 z "},"":{"ha":833,"x_min":138,"x_max":782,"o":"m 781 697 q 782 688 782 694 l 782 561 l 782 313 l 782 93 l 782 40 q 754 1 782 8 q 719 0 743 0 l 661 0 q 632 13 643 0 q 622 29 625 19 q 620 38 621 32 q 618 47 619 44 q 586 19 607 32 q 561 10 575 14 q 537 3 547 6 q 510 1 526 1 q 485 0 493 0 q 458 0 478 0 q 432 0 438 0 l 188 0 l 168 0 q 140 22 147 3 q 138 61 138 29 l 138 275 l 138 549 l 138 689 q 156 719 140 710 q 185 724 165 724 l 310 724 q 338 722 333 724 q 354 711 350 718 q 364 708 358 706 q 429 722 393 726 q 495 671 475 714 q 494 586 515 628 q 433 542 475 549 q 400 540 417 536 q 381 546 394 540 q 372 550 378 546 q 363 554 365 554 l 363 507 q 367 474 363 481 q 374 463 369 467 q 385 458 378 460 q 396 456 393 456 q 411 456 399 456 l 422 456 q 504 454 476 456 q 572 431 539 450 q 599 411 592 419 q 617 382 601 408 l 617 479 l 617 625 l 617 675 q 619 699 617 692 q 628 715 622 708 q 645 723 635 721 q 663 725 656 725 q 683 724 669 725 q 700 724 696 724 q 718 724 704 724 q 738 724 732 725 q 755 722 744 724 q 771 713 765 719 q 781 697 776 707 m 381 631 q 388 610 379 619 q 408 599 397 601 q 441 615 429 594 q 439 651 453 635 q 403 661 425 668 q 387 649 394 658 q 381 631 379 640 m 533 233 q 507 288 536 264 q 447 307 494 297 q 389 308 422 311 q 363 274 363 307 l 363 197 q 375 154 363 164 q 424 147 383 147 q 476 153 453 147 q 521 182 503 157 q 533 233 533 199 z "},"":{"ha":833,"x_min":139,"x_max":754,"o":"m 751 242 q 751 193 754 217 q 651 29 742 75 q 478 0 599 0 l 197 0 l 174 0 q 140 24 147 0 q 139 71 139 29 l 139 340 l 139 628 q 139 647 139 635 q 139 669 139 658 q 139 688 139 679 q 154 717 142 710 q 188 722 163 722 l 324 722 q 354 711 344 722 q 363 706 360 706 q 364 707 364 706 l 367 708 q 372 712 368 710 q 378 715 376 714 q 471 704 426 735 q 501 663 490 689 q 506 613 511 638 q 483 569 500 589 q 444 544 465 550 q 407 539 424 538 q 386 544 400 539 q 374 549 382 544 l 369 551 q 364 554 365 554 l 364 486 q 375 463 365 472 q 399 454 385 454 q 524 453 503 454 q 639 425 596 447 q 721 350 699 393 q 751 242 751 297 m 383 626 q 392 607 382 615 q 414 599 403 599 q 444 619 435 599 q 438 654 454 639 q 400 660 421 669 q 383 626 383 651 m 536 228 q 531 256 532 251 q 513 282 526 271 q 456 306 493 303 q 394 308 436 308 q 364 275 367 308 l 364 208 q 372 158 364 169 q 418 147 381 147 q 471 150 454 147 q 518 176 506 158 q 532 201 526 190 q 533 207 532 203 q 535 214 535 211 q 536 228 535 222 z "},"":{"ha":833,"x_min":58,"x_max":776,"o":"m 774 403 q 772 313 776 365 q 711 138 761 214 q 564 25 656 56 q 381 1 472 -4 q 288 11 328 4 q 201 42 251 19 q 74 168 122 78 q 60 206 58 197 q 85 232 63 226 q 194 263 111 240 q 203 265 196 263 q 211 267 210 267 q 219 269 213 268 q 228 271 225 271 q 235 271 231 271 q 243 270 240 271 q 250 267 246 269 q 258 263 254 265 q 264 257 261 261 q 277 238 269 251 q 288 221 285 225 q 319 189 296 207 q 403 168 349 168 q 488 192 457 168 q 538 265 524 218 q 529 300 544 288 q 500 306 522 306 l 375 306 q 347 311 356 306 q 329 343 329 319 q 329 361 329 351 q 329 382 329 371 q 329 399 329 393 q 342 432 329 421 q 371 440 353 440 l 429 440 l 493 440 q 524 443 517 440 q 522 518 556 456 q 453 572 496 558 q 364 576 410 585 q 288 529 318 568 q 258 501 272 508 q 228 504 250 499 q 176 524 217 508 q 114 549 136 540 q 86 563 94 554 q 85 599 71 578 q 228 718 136 682 q 410 747 304 747 q 596 708 517 747 q 672 656 643 685 q 704 621 694 633 q 728 585 714 610 q 774 403 769 514 m 450 656 q 444 679 453 661 q 425 692 438 688 q 391 679 404 699 q 389 642 378 660 q 425 628 401 624 q 443 638 435 629 q 450 656 451 646 z "},"":{"ha":833,"x_min":43,"x_max":840,"o":"m 838 426 q 839 339 840 368 q 800 160 832 231 q 689 31 763 71 q 600 3 651 10 q 557 0 569 0 l 511 4 q 358 78 414 11 q 313 149 329 114 q 283 229 299 178 q 278 255 281 236 q 270 285 275 274 q 253 303 265 297 q 217 297 232 315 q 208 267 208 285 l 208 56 q 172 13 208 14 q 79 13 125 10 q 43 51 43 15 l 43 107 l 43 346 l 43 604 l 43 682 q 51 722 43 713 q 81 735 63 735 l 138 735 q 153 735 140 735 q 171 735 165 736 q 185 733 176 735 q 199 725 194 731 q 207 711 204 719 q 208 683 208 707 l 208 625 l 208 519 q 217 490 208 499 q 254 483 229 478 q 275 499 268 488 q 288 529 282 510 q 294 554 293 549 q 310 594 303 582 q 320 614 313 601 q 331 632 328 626 q 332 639 332 636 l 332 643 l 332 657 q 347 697 332 674 q 422 733 372 733 q 436 732 432 733 q 446 729 442 729 q 453 733 449 729 q 473 738 458 735 q 496 743 488 742 q 585 746 543 750 q 675 724 628 744 q 796 601 751 690 q 838 426 833 525 m 433 622 q 438 626 435 624 q 442 629 440 628 q 447 642 444 631 q 446 663 450 649 q 415 682 438 683 q 385 660 392 681 q 394 624 378 638 q 433 622 417 607 m 669 383 q 669 397 669 388 q 668 411 668 406 q 576 578 661 564 q 483 550 517 589 q 443 451 453 518 q 439 349 436 411 q 454 246 442 278 q 479 201 465 221 q 524 172 496 181 q 618 190 576 156 q 661 282 654 222 q 669 383 669 349 z "},"":{"ha":833,"x_min":57,"x_max":756,"o":"m 754 701 q 756 669 756 699 l 756 493 l 756 242 l 756 58 q 756 49 756 56 q 756 36 756 42 q 756 26 756 31 q 732 3 754 8 q 706 0 724 0 l 592 0 q 536 19 546 0 q 532 40 532 26 l 532 81 l 532 201 q 533 222 532 208 q 533 246 533 235 q 532 267 533 257 q 522 294 532 292 q 510 294 519 296 q 500 293 501 293 q 439 257 463 289 q 406 200 435 250 q 365 122 396 182 q 315 32 333 63 q 264 0 297 3 l 175 0 l 81 0 q 58 14 63 0 q 64 36 57 17 q 108 122 79 64 q 153 208 138 181 q 189 260 158 219 q 213 285 196 268 q 236 303 217 290 q 244 306 238 303 q 256 311 251 308 q 261 318 261 314 q 256 325 261 322 q 242 331 251 328 l 233 333 q 169 372 194 347 l 154 385 q 149 393 153 388 q 143 401 146 399 q 124 431 135 411 q 106 507 106 469 q 111 581 106 556 q 143 647 118 613 q 274 717 186 701 q 406 724 310 724 l 629 724 l 714 724 q 729 722 725 724 q 754 701 743 721 m 385 653 q 390 632 378 644 q 407 618 396 622 q 441 629 428 611 q 444 667 454 647 q 410 681 432 686 q 392 671 400 679 q 385 653 383 663 m 532 538 q 493 571 528 571 l 415 571 q 358 558 383 571 q 329 513 335 544 q 342 460 325 485 q 388 431 357 438 q 439 425 404 425 l 478 425 l 506 425 q 532 464 532 432 l 532 538 z "},"":{"ha":833,"x_min":-4,"x_max":804,"o":"m 800 24 q 799 11 804 18 q 788 1 794 4 q 769 0 782 0 l 739 0 l 613 0 l 582 0 q 562 4 571 0 q 547 14 553 8 q 537 31 542 19 q 530 47 532 42 q 524 67 528 53 q 518 86 519 82 q 479 119 510 117 l 475 119 l 457 119 l 426 119 l 361 119 l 331 119 l 317 119 l 314 119 q 282 99 292 115 q 266 58 272 82 q 253 22 260 33 q 213 0 239 0 l 182 0 l 135 0 l 104 0 l 57 0 l 26 0 q 8 3 14 0 q 1 29 -4 11 q 3 38 1 32 q 7 46 6 43 q 25 90 10 51 l 150 426 q 202 565 168 475 q 249 688 236 654 q 264 711 254 703 q 306 725 279 725 l 336 725 l 468 725 l 499 725 q 553 685 539 725 l 590 586 l 724 232 l 778 86 q 786 65 781 79 q 794 43 792 50 q 797 34 794 42 q 800 24 800 26 m 383 639 q 400 615 383 626 q 415 632 411 622 q 406 668 424 653 l 400 672 q 383 639 383 664 m 368 276 l 418 276 l 438 276 q 449 285 446 279 q 452 292 451 288 q 454 297 453 296 q 450 315 454 307 q 440 349 444 338 q 424 402 435 368 q 410 450 414 436 q 405 469 408 456 q 399 490 401 483 q 358 356 382 440 q 343 308 347 325 q 347 285 340 294 q 368 276 354 276 z "},"":{"ha":833,"x_min":106,"x_max":774,"o":"m 769 239 q 767 164 774 197 q 739 94 760 125 q 683 44 721 67 q 528 1 618 6 q 390 0 482 0 l 169 0 q 125 4 132 0 q 106 42 106 15 l 106 186 l 106 425 l 106 632 l 106 683 q 125 721 106 710 q 161 725 132 725 l 238 725 l 472 725 l 660 725 q 696 721 689 725 q 715 657 715 708 l 715 604 q 707 578 715 590 q 663 567 697 567 l 446 567 l 368 567 q 331 540 335 567 q 329 499 329 533 q 332 464 329 471 q 340 454 335 458 q 349 448 344 450 q 360 445 353 446 q 372 444 368 444 q 385 444 375 444 q 396 444 394 444 q 558 438 504 444 q 706 376 654 425 q 769 239 763 321 m 382 646 q 390 625 381 635 q 411 614 400 615 q 444 632 435 614 q 439 669 457 654 q 403 677 425 686 q 382 646 381 668 m 549 232 q 513 286 550 269 q 446 299 492 296 l 375 299 q 332 281 342 299 q 329 258 329 274 l 329 215 q 343 164 329 174 q 358 157 350 158 q 384 156 367 156 q 403 157 401 157 q 423 156 410 157 q 447 156 436 156 q 465 157 457 156 q 524 176 503 163 q 549 232 543 192 z "},"":{"ha":833,"x_min":113,"x_max":775,"o":"m 771 219 q 767 161 775 196 q 707 60 753 97 q 657 25 679 35 q 600 11 647 21 q 356 0 536 0 l 175 0 l 142 0 q 113 35 115 3 l 113 118 l 113 297 l 113 651 l 113 688 q 126 717 115 707 q 160 725 135 725 l 224 725 l 419 725 l 474 726 q 528 725 528 728 q 649 697 613 719 q 729 599 717 656 q 724 475 749 526 q 689 426 711 449 l 678 415 l 665 408 q 653 401 664 407 q 640 392 643 396 q 651 376 632 381 q 679 365 664 372 q 728 329 714 347 q 771 219 771 279 m 383 651 q 389 629 378 644 q 408 617 397 618 q 444 631 431 611 q 443 668 457 650 q 408 681 429 688 q 383 651 382 672 m 326 474 q 342 447 326 457 q 367 442 349 442 l 439 442 q 490 454 467 442 q 517 497 511 465 q 508 547 521 526 q 467 574 494 569 q 418 576 436 576 l 375 576 q 353 575 360 576 q 326 539 329 568 l 326 474 m 546 238 q 513 289 550 271 q 449 303 489 303 l 371 303 q 329 281 336 303 q 326 257 326 274 l 326 208 q 346 163 326 174 q 369 160 354 160 l 417 160 q 475 161 465 160 q 529 183 515 167 q 546 238 546 203 z "},"":{"ha":833,"x_min":210,"x_max":776,"o":"m 776 699 l 776 681 l 776 643 l 776 565 q 761 525 776 538 q 740 513 753 517 q 719 508 726 508 q 690 508 711 507 q 667 508 669 508 l 494 508 l 458 508 q 438 499 446 508 q 429 475 429 489 q 428 413 428 475 l 429 350 l 429 201 l 429 111 l 429 35 q 414 6 429 18 q 381 1 407 1 l 294 1 q 276 1 292 1 q 252 1 260 0 q 233 4 244 1 q 215 15 221 7 q 210 35 210 22 l 210 257 l 210 607 l 210 689 q 229 721 210 713 q 256 724 238 724 l 567 724 l 714 724 l 743 724 q 765 717 754 724 q 776 699 776 710 m 451 651 q 444 672 453 663 q 422 682 435 681 q 391 665 401 685 q 394 628 381 646 q 431 619 408 613 q 451 651 453 631 z "},"":{"ha":833,"x_min":7,"x_max":831,"o":"m 828 263 l 828 242 l 828 197 l 828 76 q 829 58 828 74 q 829 33 831 43 q 824 15 828 22 q 810 5 819 8 q 795 1 801 1 q 775 1 789 0 q 758 1 761 1 l 699 1 q 671 3 674 1 q 658 11 663 6 q 651 26 653 17 q 648 41 649 35 q 648 59 647 47 q 649 74 649 71 q 643 107 649 99 q 615 122 636 119 q 586 124 601 124 q 551 123 571 124 q 522 122 532 122 l 456 122 l 281 122 l 225 122 q 199 113 206 119 q 187 91 189 104 q 187 60 185 78 q 188 35 189 42 q 171 6 185 13 q 143 1 164 1 l 42 1 q 17 11 26 1 q 7 36 7 21 l 7 126 l 7 238 l 7 258 q 31 286 11 279 q 49 288 33 288 l 65 292 q 93 319 88 301 q 114 397 106 356 q 131 478 129 474 q 133 504 132 490 q 136 535 135 518 q 139 563 138 553 q 144 718 144 614 l 144 779 l 144 811 q 182 844 147 844 l 338 844 l 585 844 l 679 844 l 697 844 q 717 844 717 846 q 750 808 750 842 l 750 757 l 750 525 l 750 333 q 767 293 750 303 q 783 288 772 290 l 793 289 q 803 288 803 289 q 828 263 828 281 m 386 761 q 392 738 381 753 q 410 726 399 729 q 444 739 431 719 q 446 776 458 758 q 413 790 432 794 q 393 781 401 789 q 386 761 385 772 m 528 633 q 519 656 528 644 q 481 667 508 667 l 403 667 q 361 665 375 667 q 350 664 353 665 q 349 657 349 664 q 347 632 347 649 q 339 524 347 596 q 321 406 332 458 l 311 350 q 307 303 301 314 q 339 288 313 288 l 411 288 l 483 288 q 518 299 510 288 q 528 328 528 308 l 528 376 l 528 633 z "},"":{"ha":833,"x_min":129,"x_max":733,"o":"m 732 14 l 732 13 q 731 10 731 11 l 731 8 l 729 8 l 725 4 l 725 3 l 724 1 l 721 1 l 719 0 l 144 0 l 142 1 l 140 1 l 138 3 l 136 3 l 129 10 l 129 707 l 136 714 l 139 715 l 140 717 l 147 717 l 321 717 l 611 717 l 696 717 l 710 717 q 724 697 724 715 q 724 659 724 683 q 724 615 724 635 q 724 578 724 594 q 723 574 724 576 q 722 571 722 572 q 711 556 719 563 l 710 554 l 708 554 l 707 553 l 704 551 l 700 551 l 688 551 l 422 551 l 376 551 l 361 551 q 357 550 358 551 q 350 519 347 546 q 351 467 350 475 q 371 450 356 453 l 400 450 l 536 450 l 661 450 l 682 450 q 696 429 696 449 l 696 365 q 697 351 696 360 q 697 334 697 342 q 696 321 697 326 q 692 311 696 315 l 692 310 l 689 307 l 686 306 l 683 306 l 681 304 l 676 304 l 647 304 l 386 304 l 365 304 q 360 301 363 304 q 351 282 351 294 l 351 217 l 351 190 q 354 181 351 189 q 364 171 358 172 q 372 169 367 169 l 407 169 l 543 169 l 679 169 l 719 169 l 721 169 q 724 168 722 168 q 732 160 731 167 q 733 126 733 158 l 733 56 q 732 14 733 18 m 393 657 l 392 654 l 390 653 q 388 639 388 649 q 394 619 386 628 q 414 608 403 611 l 428 608 l 431 611 l 436 614 l 442 619 l 443 621 l 443 624 l 444 628 l 446 631 l 447 635 l 447 642 l 446 646 l 444 649 l 443 653 l 443 654 l 442 657 l 436 663 l 433 664 l 431 667 l 426 668 l 424 668 q 394 658 404 671 l 393 657 z "},"":{"ha":833,"x_min":8,"x_max":832,"o":"m 826 53 q 814 8 832 21 q 763 1 803 1 l 682 1 q 644 28 656 4 q 626 85 643 31 q 615 125 622 99 q 604 164 607 151 q 594 191 601 174 q 586 211 588 208 q 560 257 576 240 q 546 267 554 264 q 528 250 535 269 q 526 206 526 246 l 526 42 q 510 4 526 14 q 458 1 504 1 l 367 1 q 322 10 329 1 q 314 51 314 19 l 314 135 l 314 219 q 307 260 314 250 q 296 267 301 267 q 284 262 290 268 q 273 249 278 256 q 263 231 268 242 q 255 215 257 221 q 250 204 253 210 q 244 190 249 199 q 238 173 240 181 q 233 158 235 165 q 210 74 229 142 q 192 22 193 25 q 151 1 178 1 l 65 1 q 21 14 32 1 q 15 67 8 28 q 29 128 24 108 q 44 162 33 140 q 57 190 54 183 q 81 244 64 208 q 91 271 83 251 q 104 300 99 290 q 133 349 131 346 q 140 356 136 351 q 147 363 143 360 q 153 368 150 365 q 164 376 156 369 q 175 385 172 382 q 176 399 178 394 q 165 413 174 404 q 154 424 156 421 q 125 465 132 449 q 115 492 121 474 q 104 519 108 511 q 71 567 90 549 q 47 576 61 576 q 26 583 29 579 q 24 600 24 588 l 24 636 l 24 703 q 38 725 26 718 q 67 729 43 729 q 128 724 117 726 q 215 647 182 713 q 231 612 224 631 q 245 569 238 593 q 257 532 253 544 q 279 482 268 497 q 310 479 297 457 q 314 522 314 489 l 314 613 l 314 685 q 331 722 314 715 q 383 725 336 725 l 475 725 q 518 715 510 725 q 526 674 526 706 l 526 508 q 536 471 526 475 q 567 493 547 465 q 582 527 575 508 q 595 572 589 546 q 606 608 601 597 q 672 706 629 675 q 724 726 699 725 l 782 731 q 815 697 815 731 l 815 622 q 808 579 815 585 q 801 577 806 578 q 792 576 797 576 q 785 575 788 575 q 764 563 772 572 q 756 553 764 561 q 746 540 749 546 q 732 513 740 532 q 722 487 728 504 q 713 461 717 469 q 681 418 699 436 q 673 410 679 415 q 664 400 667 404 q 672 379 660 390 q 711 340 700 357 q 740 289 724 325 q 788 179 750 268 q 826 53 826 93 m 453 651 q 445 672 454 663 q 425 683 436 681 q 392 668 406 688 q 394 629 378 650 q 432 619 408 610 q 453 651 457 629 z "},"":{"ha":833,"x_min":90,"x_max":715,"o":"m 711 272 q 708 192 715 228 q 615 56 688 103 q 453 1 543 8 q 279 15 343 -4 q 139 110 189 39 q 99 189 118 139 q 100 225 90 215 q 125 235 106 232 l 240 243 q 268 244 260 246 q 300 226 285 244 q 310 212 303 224 q 325 196 318 200 q 358 176 332 189 q 438 178 396 163 q 489 235 481 192 q 490 271 492 263 q 469 300 489 283 q 400 331 439 326 q 363 332 388 332 q 328 340 336 332 q 318 374 318 351 l 318 418 q 342 443 324 442 q 363 443 349 444 q 383 443 376 442 q 447 483 432 451 q 450 560 469 528 q 378 586 431 589 q 310 553 328 583 q 254 522 288 518 q 140 536 213 528 q 115 544 122 539 q 108 576 100 557 q 153 651 126 621 q 217 706 182 685 q 299 738 243 721 q 386 747 333 747 q 468 742 422 749 q 622 676 568 726 q 668 604 654 647 q 674 524 679 575 q 640 449 667 479 q 611 421 635 440 q 601 407 601 414 q 613 396 604 399 q 630 387 618 393 q 649 376 642 381 q 681 347 676 353 q 711 272 704 318 m 451 660 q 443 681 453 671 q 422 692 433 690 q 389 673 400 693 q 393 638 378 653 q 432 629 410 618 q 451 660 454 638 z "},"":{"ha":833,"x_min":69,"x_max":763,"o":"m 761 701 q 763 664 763 699 l 763 450 l 763 174 l 763 33 q 744 4 763 15 q 714 0 735 0 l 593 0 q 553 35 553 0 l 553 119 l 553 343 q 551 357 553 351 q 543 361 549 363 q 526 339 536 358 l 460 231 q 360 65 426 176 q 315 10 332 19 q 240 0 297 0 l 115 0 q 89 6 97 0 q 72 33 72 14 q 71 104 69 33 l 72 175 l 72 450 l 72 664 q 75 703 72 697 q 85 716 79 711 q 99 722 90 721 q 114 724 108 724 q 131 724 119 725 q 147 724 143 724 q 179 724 158 724 q 217 724 200 724 q 250 724 235 724 q 281 701 272 721 q 282 679 282 697 l 282 438 l 282 371 q 290 360 286 358 q 301 369 297 360 q 319 400 304 374 l 385 507 q 392 525 393 522 q 387 533 392 529 q 375 539 382 536 q 365 543 368 542 q 327 618 326 569 q 365 693 328 667 q 428 710 393 714 q 468 696 450 707 q 474 692 471 694 q 482 685 478 689 q 489 679 486 681 q 508 706 500 699 q 536 721 528 718 q 578 724 546 724 l 664 724 l 728 724 q 761 701 750 724 m 451 622 q 442 642 450 633 q 422 650 433 650 q 390 632 399 653 q 396 597 381 611 q 432 590 413 581 q 451 622 451 599 z "},"":{"ha":833,"x_min":69,"x_max":758,"o":"m 581 721 l 732 721 q 750 713 742 721 q 758 694 758 706 l 758 26 q 750 8 758 17 q 732 0 742 0 l 576 0 q 557 8 565 0 q 549 26 549 15 l 549 382 q 544 395 549 393 q 533 388 539 397 l 346 43 l 335 22 q 293 0 319 0 l 96 0 q 77 8 85 0 q 69 26 69 15 l 69 694 q 77 713 69 706 q 96 721 85 721 l 251 721 q 271 713 263 721 q 279 694 279 706 l 279 336 q 284 323 279 325 q 294 331 289 321 l 419 547 l 482 653 q 481 660 485 657 q 474 663 478 664 q 419 656 446 656 q 297 696 350 656 q 250 763 250 735 q 263 791 250 778 q 293 804 275 804 q 344 772 319 804 l 350 767 q 357 768 353 764 q 393 799 369 790 q 440 800 417 808 q 478 767 467 792 q 482 763 479 764 q 486 765 485 763 q 493 772 490 768 q 546 804 518 804 q 577 786 565 804 q 582 749 589 768 q 575 731 581 742 q 581 721 568 721 m 442 732 q 437 750 443 742 q 421 760 431 758 q 392 738 397 763 q 414 710 389 713 q 442 732 439 707 z "},"":{"ha":833,"x_min":118,"x_max":803,"o":"m 797 25 q 797 10 803 17 q 782 1 792 3 l 761 1 l 646 1 q 576 4 585 1 q 544 24 558 8 q 528 60 542 26 q 493 140 506 113 l 464 210 q 440 265 450 239 q 428 289 429 286 q 396 290 411 308 q 364 256 383 278 q 346 226 353 244 q 342 194 342 217 l 342 122 l 342 63 q 342 53 342 60 q 342 42 342 47 q 342 32 342 36 q 319 3 339 10 q 294 1 317 1 l 179 1 q 171 1 176 1 q 162 1 165 1 q 153 1 158 1 q 146 2 149 1 q 139 4 143 3 q 132 8 135 6 q 126 13 129 10 q 122 21 124 17 q 118 56 118 29 l 118 235 l 118 485 l 118 667 q 119 699 118 693 q 144 724 124 719 q 153 724 149 724 q 162 724 157 724 q 169 724 167 724 l 285 724 q 292 724 286 724 q 300 724 297 724 q 308 724 303 724 q 315 723 313 724 q 321 722 317 722 q 327 719 325 721 q 332 715 329 717 q 337 710 335 713 q 340 703 339 707 q 343 696 342 697 q 351 694 346 694 q 360 701 354 696 q 367 707 365 706 q 403 721 381 717 q 472 700 442 728 q 483 685 483 686 q 489 678 486 683 q 493 669 492 672 q 508 665 499 665 q 521 669 517 665 q 533 686 526 674 q 543 703 539 699 q 576 721 560 715 q 603 724 586 724 l 653 724 l 749 724 q 774 711 768 724 q 765 683 776 706 q 742 651 758 671 q 722 625 726 631 q 650 524 685 571 q 631 495 646 518 q 606 461 615 472 q 599 407 585 439 q 622 363 608 386 l 731 154 q 778 64 732 151 q 792 38 789 42 l 794 32 q 797 25 796 26 m 446 639 q 439 660 447 650 q 419 671 431 669 q 387 655 399 674 q 389 618 375 636 q 426 609 403 601 q 446 639 449 617 m 428 547 q 404 558 429 553 q 368 568 379 561 q 344 572 347 581 q 343 543 343 569 q 342 515 343 533 q 342 488 342 497 q 343 458 342 464 q 365 456 354 446 q 385 485 375 467 l 415 526 q 428 547 428 543 z "},"":{"ha":833,"x_min":51,"x_max":782,"o":"m 778 25 q 778 12 782 18 q 768 3 775 6 q 750 1 765 1 l 576 1 q 536 31 547 1 q 518 89 529 50 q 494 165 510 115 q 471 236 478 214 l 443 322 q 431 363 435 350 l 422 379 q 409 374 414 383 q 403 354 404 365 l 378 281 q 347 186 369 254 q 313 82 325 118 l 296 29 q 258 1 288 4 l 193 1 l 90 1 q 82 1 89 1 q 72 1 75 1 q 63 3 68 1 q 56 7 58 4 q 53 15 53 10 q 58 40 51 21 q 82 106 67 63 q 106 169 97 149 l 247 565 q 270 626 256 586 q 292 686 285 667 q 307 711 296 701 q 360 721 319 721 l 464 721 q 521 718 515 721 q 544 690 539 707 q 558 651 553 665 l 688 283 q 778 25 717 197 m 449 626 q 442 649 454 636 q 424 661 436 657 q 388 647 401 667 q 388 610 374 628 q 422 597 404 592 q 449 626 449 603 z "},"":{"ha":833,"x_min":31,"x_max":801,"o":"m 800 697 q 801 683 801 693 l 801 653 l 801 392 l 801 106 l 801 38 q 794 15 799 22 q 763 1 783 1 l 642 1 q 611 24 619 1 q 608 49 608 32 l 608 317 l 608 342 q 606 351 608 347 q 597 353 603 354 q 585 340 593 353 q 576 315 579 333 l 556 253 q 535 187 549 231 q 514 121 521 143 q 504 94 507 100 q 465 68 493 74 l 414 68 q 365 69 381 68 q 326 97 340 71 q 317 124 324 103 l 275 256 q 253 321 264 285 l 244 350 q 231 354 239 358 q 222 342 222 350 l 222 314 l 222 174 l 222 47 q 219 22 222 31 q 188 1 211 1 l 65 1 q 31 39 31 1 l 31 243 l 31 549 l 31 657 q 32 703 31 699 q 40 718 35 713 q 56 725 46 724 q 72 727 65 726 q 90 727 78 728 q 106 726 103 726 l 242 726 q 272 718 261 726 q 286 701 282 713 q 289 695 288 699 q 292 688 290 692 q 294 681 293 683 q 299 667 296 678 q 305 648 301 656 q 314 639 308 640 q 328 647 324 635 q 333 657 329 650 q 339 668 336 664 q 419 711 371 713 q 497 660 472 707 l 497 658 q 518 639 508 632 q 521 644 519 640 q 524 652 522 647 q 526 658 525 657 q 531 672 528 661 q 536 690 535 683 q 564 722 543 714 q 596 728 575 728 q 736 726 643 726 l 771 726 q 792 717 782 725 q 800 697 801 708 m 383 614 q 394 594 383 603 q 414 585 404 585 q 445 606 436 585 q 438 642 454 628 q 400 646 419 658 q 383 614 383 638 m 492 549 q 480 551 488 556 q 467 542 472 547 q 400 526 433 521 q 367 540 390 529 l 351 551 q 347 557 350 553 q 344 558 346 558 l 342 558 q 339 547 338 556 q 340 542 339 546 q 342 536 340 538 l 363 475 q 404 349 376 432 q 414 324 408 326 q 419 324 417 322 q 422 330 421 326 q 424 336 424 333 q 426 342 425 339 l 464 463 q 473 490 467 469 q 483 522 479 511 q 492 549 492 544 z "},"":{"ha":833,"x_min":75,"x_max":769,"o":"m 768 700 q 769 683 769 697 l 769 654 l 769 382 l 769 93 l 769 36 q 753 6 769 14 q 717 0 743 0 l 582 0 q 550 17 558 3 q 544 49 544 25 l 544 192 l 544 251 q 539 281 544 272 q 506 294 528 294 l 446 294 l 332 294 q 315 290 322 294 q 305 278 308 285 q 300 261 301 272 q 298 243 299 250 q 298 224 297 236 q 299 208 299 211 l 299 103 l 299 49 q 285 7 299 17 q 250 0 275 0 l 176 0 l 114 0 q 83 15 92 3 q 75 64 75 25 l 75 326 l 75 622 l 75 690 q 119 728 75 728 l 257 728 q 289 718 278 728 q 299 696 299 708 q 299 683 299 693 q 300 674 299 674 l 324 674 q 344 685 326 675 q 371 704 350 689 q 415 715 389 715 q 442 711 429 715 q 482 686 465 706 q 503 642 499 667 q 497 590 508 615 q 463 550 485 564 q 379 544 417 525 q 357 558 365 550 q 335 574 340 572 q 318 575 329 575 l 300 575 l 300 572 q 299 569 300 571 l 299 507 q 361 472 300 472 l 503 472 q 533 482 524 472 q 544 514 544 493 l 544 656 q 544 669 544 658 q 544 684 544 679 q 546 697 544 689 q 550 710 547 706 q 558 720 553 715 q 572 726 564 725 q 613 728 578 728 l 692 728 l 736 728 q 758 719 747 726 q 768 700 769 711 m 381 626 q 389 606 379 615 q 410 593 399 596 q 443 608 429 589 q 440 647 456 626 q 403 657 426 665 q 381 626 379 649 z "},"":{"ha":833,"x_min":28,"x_max":789,"o":"m 788 428 q 789 371 789 408 q 732 144 789 232 q 551 17 664 43 q 436 0 485 0 q 319 8 367 0 q 263 21 293 13 q 208 44 244 28 q 119 118 163 64 q 63 218 85 161 q 40 335 46 264 q 81 572 28 472 q 151 664 108 625 q 254 725 190 699 q 492 744 357 764 q 699 646 629 725 l 721 621 q 729 608 724 617 q 736 597 735 600 q 763 543 756 568 q 779 488 774 515 q 788 428 786 458 m 378 660 q 385 640 376 649 q 406 628 394 631 q 440 643 425 622 q 444 661 444 649 q 438 679 444 672 q 422 692 433 688 q 401 692 411 696 q 384 679 392 689 q 378 660 376 669 m 567 383 q 566 397 567 389 q 565 411 565 406 q 536 519 563 472 q 442 578 507 568 q 333 558 378 588 q 271 465 288 529 q 263 350 257 417 q 288 239 268 276 q 375 172 319 182 q 486 183 440 160 q 553 269 535 207 q 567 383 560 290 z "},"":{"ha":833,"x_min":69,"x_max":763,"o":"m 761 92 l 761 63 q 761 33 763 33 q 744 6 758 13 q 710 0 736 0 l 575 0 q 548 11 558 0 q 538 39 538 22 l 538 290 l 538 439 l 538 511 q 518 543 538 535 q 483 546 511 546 l 339 546 q 307 539 317 546 q 293 510 293 532 l 293 486 l 293 411 l 293 251 l 293 183 l 293 146 l 293 35 q 292 32 293 33 q 291 26 292 29 q 290 21 290 22 q 275 4 283 10 q 240 0 268 0 l 167 0 l 107 0 q 75 15 85 0 q 69 64 69 22 l 69 328 l 69 621 l 69 688 q 80 713 69 703 q 106 722 90 722 l 310 722 l 621 722 l 713 722 l 726 722 q 747 715 738 722 q 760 697 750 713 q 761 681 761 694 l 761 651 l 761 381 l 761 92 m 447 643 q 438 663 449 654 q 417 672 428 671 q 386 652 394 674 q 394 615 378 631 q 431 611 410 600 q 447 643 447 621 z "},"":{"ha":833,"x_min":147,"x_max":764,"o":"m 763 517 q 760 461 764 507 q 746 403 758 438 q 717 353 736 382 q 625 289 690 313 q 511 269 576 272 l 444 269 q 390 265 397 269 q 372 224 372 256 l 372 165 l 372 90 q 373 73 372 85 q 374 51 374 61 q 372 33 374 42 q 356 6 371 15 q 311 0 346 0 l 225 0 q 209 0 219 0 q 191 0 199 0 q 176 0 183 0 q 147 35 147 6 l 147 53 l 147 169 l 147 526 l 147 658 q 158 718 147 708 q 192 726 169 726 l 250 726 l 428 726 q 469 727 435 726 q 517 727 504 728 q 557 724 531 726 q 603 717 583 722 q 643 706 624 713 q 731 632 700 685 q 763 517 763 579 m 388 649 q 396 628 386 638 q 417 615 406 618 q 450 633 439 613 q 447 671 461 654 q 410 681 431 690 q 394 667 401 678 q 388 649 386 657 m 544 503 q 517 558 546 533 q 460 578 496 575 q 408 579 439 583 q 374 550 378 575 q 372 485 372 540 q 378 431 372 439 q 399 417 388 418 l 428 417 q 483 422 460 417 q 531 453 513 429 q 544 503 544 472 z "},"":{"ha":833,"x_min":42,"x_max":743,"o":"m 740 236 q 735 200 743 232 q 719 165 728 183 q 613 44 678 85 q 535 14 576 24 q 451 1 507 7 l 368 1 q 285 15 331 3 q 204 47 233 28 q 140 100 167 69 q 90 169 113 131 q 60 246 76 192 q 44 332 50 274 q 44 418 42 376 q 90 588 51 508 q 208 706 125 657 q 376 750 271 742 q 547 733 475 754 q 685 638 628 708 q 726 567 704 613 q 728 532 738 544 q 704 517 722 521 q 593 493 668 510 q 535 507 546 481 q 494 558 524 533 q 460 576 479 569 q 421 582 451 579 q 340 563 379 589 q 310 536 322 550 q 288 500 304 529 q 269 417 279 482 q 269 331 265 374 q 333 188 279 217 q 371 172 365 174 l 413 168 q 489 190 453 168 q 535 253 515 208 q 541 269 536 256 q 550 289 546 282 q 585 300 563 306 q 681 272 596 299 q 697 267 682 272 q 717 260 711 263 q 730 251 722 258 q 740 236 738 244 m 393 657 q 403 637 392 646 q 426 629 415 628 q 457 651 450 629 q 446 688 464 672 q 408 690 431 703 q 393 657 393 681 z "},"":{"ha":833,"x_min":74,"x_max":756,"o":"m 754 700 q 756 679 756 697 l 756 635 q 754 572 756 579 q 717 546 749 546 l 563 546 q 526 517 531 546 l 526 490 l 526 335 l 526 33 q 496 0 526 3 l 435 0 l 346 0 q 307 17 317 0 q 301 47 301 26 l 301 104 l 301 290 l 301 467 q 302 486 301 469 q 302 510 303 503 q 297 528 301 518 q 283 543 293 538 q 232 546 278 546 l 136 546 q 89 553 100 546 q 74 596 74 561 l 74 685 q 97 724 74 714 q 121 725 100 725 l 172 725 l 544 725 l 692 725 l 721 725 q 738 721 729 725 q 747 713 743 719 q 751 706 750 710 q 754 700 753 701 m 449 650 q 440 671 450 661 q 418 682 429 681 q 385 664 396 685 q 390 626 375 643 q 428 619 406 610 q 449 650 450 628 z "},"":{"ha":833,"x_min":90,"x_max":742,"o":"m 738 724 q 735 699 742 717 q 694 586 724 668 q 650 460 665 504 l 554 194 q 549 178 553 192 q 542 160 544 165 q 536 144 540 156 q 530 127 532 132 q 523 111 528 122 q 515 94 518 100 q 506 79 511 89 q 495 63 500 69 q 484 50 490 57 q 471 36 478 43 q 368 1 438 4 l 264 1 q 213 4 246 1 q 197 6 208 6 q 177 8 186 6 q 163 14 168 10 q 144 50 144 25 l 144 122 q 164 157 144 149 q 211 156 172 160 l 263 156 q 314 168 292 156 q 331 244 353 193 q 310 286 324 260 q 292 321 296 313 l 143 611 q 121 655 136 625 q 97 700 106 685 q 93 724 90 717 q 126 736 97 736 l 275 736 q 310 732 299 736 q 339 688 331 722 l 351 704 l 368 717 q 461 721 417 746 q 492 694 482 708 q 501 674 494 689 q 505 686 501 675 q 510 702 508 697 q 517 715 513 707 q 528 725 522 722 q 564 736 546 736 l 632 736 l 704 736 q 738 724 731 736 m 385 639 q 392 619 383 628 q 413 607 401 610 q 445 625 435 604 q 440 661 456 646 q 404 669 425 678 q 385 639 383 661 m 435 451 q 467 556 444 486 q 444 551 465 556 q 422 549 431 549 q 400 549 413 547 q 392 551 399 549 q 381 554 385 554 l 407 469 l 415 444 q 435 451 424 435 z "},"":{"ha":833,"x_min":14,"x_max":813,"o":"m 808 436 q 813 374 813 406 q 800 257 813 307 q 735 150 781 192 q 625 94 699 115 q 565 81 603 88 q 522 54 532 75 q 520 40 521 50 q 519 28 519 31 q 506 7 514 13 q 485 0 494 0 l 458 0 l 371 0 q 329 8 339 0 q 318 29 321 15 q 317 43 317 33 q 315 57 317 53 q 268 83 308 75 q 149 118 206 94 q 63 197 94 143 q 28 314 32 250 q 68 554 14 475 q 161 629 104 603 q 283 664 221 656 q 317 694 313 669 q 351 722 319 722 l 486 722 q 519 697 515 722 q 531 674 522 682 q 554 664 540 665 q 671 631 618 656 q 769 551 735 604 q 797 494 789 521 q 808 436 803 478 m 451 651 q 442 672 454 660 q 422 679 432 679 q 389 660 399 681 q 396 622 379 639 q 433 617 413 607 q 451 651 451 625 m 632 375 q 574 499 629 453 q 522 506 533 531 q 521 461 521 503 l 521 276 q 529 239 521 244 q 583 261 546 228 q 618 311 608 283 q 628 342 626 331 q 630 358 629 347 q 632 375 631 369 m 317 494 q 310 508 318 503 q 294 514 303 514 q 267 499 283 513 q 224 446 240 476 q 211 328 194 394 q 240 275 218 301 q 264 253 253 261 q 292 236 282 238 q 315 249 310 232 q 317 265 317 254 l 317 344 l 317 494 z "},"":{"ha":833,"x_min":32,"x_max":800,"o":"m 796 19 q 792 6 800 11 q 774 0 783 1 l 718 0 l 639 0 q 622 0 636 0 q 602 0 607 0 q 586 1 597 0 q 568 6 575 3 q 554 15 561 10 q 524 54 553 15 q 511 74 521 58 q 496 99 501 90 q 440 185 451 165 q 403 200 425 211 q 369 158 389 193 l 315 71 q 302 50 311 65 q 288 28 293 35 q 246 3 274 8 q 210 0 235 0 l 135 0 l 67 0 q 38 8 43 0 q 43 35 32 18 l 65 68 l 232 310 q 256 344 243 325 q 267 367 265 360 q 247 429 272 394 q 86 665 103 640 q 79 674 86 667 q 69 688 72 682 q 61 701 65 693 q 58 714 57 708 q 64 724 58 719 q 99 728 71 728 l 172 728 l 236 728 q 271 719 254 728 q 300 689 290 708 q 318 660 307 679 q 332 636 329 642 q 334 641 333 638 q 335 646 335 644 q 350 669 340 658 q 440 693 388 707 q 479 669 461 688 q 501 629 488 661 l 513 649 q 544 704 538 694 q 589 728 561 725 l 633 728 l 717 728 q 760 726 753 728 q 769 697 783 721 q 710 610 756 675 q 617 471 661 535 q 595 439 613 464 q 569 400 578 414 q 568 353 558 379 l 582 332 q 658 221 626 269 q 751 88 690 176 l 782 42 q 796 19 796 28 m 449 613 q 421 643 450 636 q 388 626 399 646 q 392 589 376 604 q 428 581 407 571 q 449 613 449 592 z "},"":{"ha":833,"x_min":86,"x_max":831,"o":"m 829 261 q 831 226 831 258 l 831 153 l 831 71 l 831 35 q 824 15 829 22 q 806 4 818 7 q 785 1 793 1 q 760 1 776 0 q 740 1 744 1 q 720 1 736 1 q 697 1 704 0 q 677 4 689 1 q 659 14 665 7 q 651 33 653 21 q 650 51 650 42 q 651 71 650 60 q 651 88 651 82 q 642 110 651 100 q 621 122 633 121 l 550 122 l 401 122 l 128 122 q 98 133 110 122 q 86 160 86 143 l 86 235 l 86 557 l 86 801 q 89 822 86 815 q 124 846 97 846 l 189 846 l 254 846 q 289 825 279 843 q 290 800 290 822 l 290 686 l 290 372 l 290 339 q 311 311 292 324 q 350 300 326 300 l 415 300 l 493 300 q 531 306 522 300 q 541 316 538 310 q 546 331 544 322 q 548 344 547 339 q 548 361 549 350 q 547 376 547 372 l 547 679 l 547 704 l 531 704 l 521 704 q 499 693 515 703 q 457 667 464 669 q 411 664 429 658 q 342 725 354 676 q 368 824 325 786 q 464 839 408 857 q 486 825 476 832 q 510 810 500 811 q 528 808 513 808 l 546 808 q 547 815 547 808 q 582 846 551 843 l 635 846 l 710 846 q 744 833 733 846 q 753 804 753 824 l 753 696 l 753 385 l 753 354 q 756 314 753 319 q 771 294 760 301 q 794 289 781 289 q 815 282 808 289 q 829 261 831 271 m 461 754 q 453 775 463 765 q 432 786 443 785 q 400 768 410 789 q 406 732 390 747 q 439 724 419 717 q 461 754 464 733 z "},"":{"ha":833,"x_min":24,"x_max":679,"o":"m 679 296 l 679 85 q 679 72 679 82 q 679 58 679 63 q 678 44 679 54 q 676 30 678 35 q 672 18 675 25 q 665 8 669 11 q 655 3 661 6 q 640 0 649 0 l 528 0 l 492 0 q 456 39 456 0 l 456 178 l 456 194 l 456 211 q 451 229 456 224 q 431 235 447 235 q 407 233 424 235 q 382 229 390 231 q 350 229 367 229 q 313 229 333 229 q 282 229 293 229 q 266 230 275 229 q 246 232 257 231 q 229 233 235 233 q 181 243 200 236 q 94 296 138 257 q 24 475 24 358 l 24 593 l 24 664 q 25 694 24 690 q 33 712 28 706 q 49 720 39 718 q 67 723 60 722 q 88 723 74 724 q 106 722 101 722 l 181 722 q 215 717 207 722 q 231 683 231 707 l 231 628 l 231 513 q 239 467 231 497 q 264 429 250 440 q 356 410 299 406 l 382 414 q 406 422 404 421 q 443 450 433 435 q 456 549 456 472 q 435 542 453 546 q 414 539 421 539 q 383 544 394 539 q 328 603 340 563 q 339 685 314 651 q 408 722 367 721 q 446 718 421 724 q 463 708 463 713 q 478 719 471 717 q 493 722 483 722 l 608 722 q 622 723 611 722 q 639 723 633 724 q 653 721 644 722 q 668 716 663 719 q 678 706 674 713 l 679 703 l 679 688 l 679 657 l 679 560 l 679 296 m 390 610 q 427 601 406 593 q 447 632 449 610 q 439 653 450 642 q 419 663 432 660 q 387 645 399 665 q 390 610 375 625 z "},"":{"ha":833,"x_min":29,"x_max":806,"o":"m 804 75 q 805 61 804 72 q 806 43 806 50 q 803 27 806 36 q 797 14 801 18 q 739 1 786 1 l 438 1 l 117 1 l 60 1 q 29 57 29 7 l 29 351 l 29 660 l 29 686 q 46 718 31 706 q 93 724 53 724 l 175 724 q 214 704 206 724 q 218 676 218 694 l 218 551 l 218 232 q 218 225 218 229 q 218 217 218 221 q 218 210 218 213 q 254 179 222 179 q 306 193 293 176 q 314 222 314 203 l 314 526 l 314 665 q 344 724 314 722 l 479 724 q 496 721 489 724 q 514 704 507 718 q 518 678 518 697 l 518 369 l 518 233 q 519 210 518 218 q 554 179 524 182 q 608 190 596 176 q 617 221 617 200 l 617 338 l 617 663 l 617 688 q 644 724 619 719 q 663 725 653 725 q 685 724 674 725 q 704 724 697 724 l 769 724 q 792 715 782 725 q 804 693 803 706 l 804 675 l 804 394 l 804 75 m 425 604 q 451 633 442 608 q 426 669 451 665 q 390 657 404 675 q 389 619 376 639 q 425 604 404 600 z "},"":{"ha":833,"x_min":13,"x_max":867,"o":"m 867 254 l 867 207 l 867 42 q 846 3 867 14 q 825 1 842 1 l 783 1 l 718 1 q 688 42 688 6 q 688 63 688 47 q 688 90 689 79 q 681 108 686 101 q 629 122 669 122 l 363 122 l 56 122 q 25 132 35 122 q 14 163 14 146 l 14 265 l 14 644 l 14 783 q 14 789 14 785 q 39 843 14 835 q 60 844 43 844 l 103 844 l 169 844 q 193 832 185 843 q 202 811 201 821 q 203 783 203 801 q 203 781 203 782 q 203 778 203 779 l 203 424 l 203 333 q 213 310 203 319 q 239 300 224 300 q 293 317 283 300 q 299 347 299 326 l 299 403 l 299 585 l 299 761 l 299 806 q 313 838 299 825 q 363 844 321 844 l 453 844 q 496 831 488 844 q 503 800 503 821 l 503 468 l 503 340 q 515 310 503 325 q 540 300 525 300 q 549 300 543 300 q 561 300 556 300 q 571 300 567 300 q 601 336 601 304 q 601 346 601 340 q 601 358 601 351 q 601 367 601 364 l 601 532 l 601 721 l 601 811 q 613 835 603 825 q 638 844 624 844 l 714 844 q 771 842 764 844 q 789 807 789 832 l 789 490 l 789 358 q 790 319 789 332 q 804 297 792 306 q 832 289 817 288 q 856 279 846 290 q 867 254 865 268 m 446 744 q 447 749 447 746 q 449 754 447 753 q 428 790 449 781 q 390 779 406 799 q 388 740 375 760 q 422 725 400 721 q 440 736 433 729 q 446 744 443 739 z "},"":{"ha":833,"x_min":43,"x_max":771,"o":"m 768 260 q 768 200 771 244 q 718 83 763 139 q 613 17 686 43 q 496 0 568 0 l 308 0 l 219 0 q 179 6 189 0 q 161 44 161 17 l 161 97 l 161 479 l 161 511 q 117 544 156 544 q 103 544 114 544 q 87 544 92 543 q 73 546 82 544 q 59 551 64 547 q 50 563 54 556 q 44 583 46 571 q 44 611 43 594 q 46 632 46 628 l 46 676 q 50 700 46 692 q 101 719 63 719 l 256 719 l 339 719 q 363 713 349 719 l 368 708 q 374 710 371 708 q 390 715 379 713 q 494 683 450 732 q 515 617 518 654 q 489 554 513 581 q 428 526 464 526 q 419 526 425 526 q 407 526 413 526 q 397 526 401 526 q 381 531 385 531 q 378 522 378 531 q 378 511 378 521 q 378 498 378 501 q 379 487 378 494 q 383 475 381 479 q 389 467 385 471 q 399 460 393 463 q 422 454 408 454 l 472 454 q 610 442 564 454 q 671 415 643 432 q 719 375 690 404 q 753 319 742 353 q 758 306 754 315 q 763 290 761 296 q 765 275 764 285 q 768 260 767 265 m 386 615 q 396 597 385 604 q 419 589 407 589 q 451 611 443 589 q 440 649 458 633 q 401 651 422 663 q 386 615 386 642 m 553 242 q 538 292 550 275 q 493 317 519 310 q 436 324 463 324 q 385 311 393 324 q 378 250 378 300 q 379 172 378 181 q 394 147 379 153 q 428 144 401 144 q 488 150 474 144 q 538 183 526 164 q 553 242 553 208 z "},"":{"ha":833,"x_min":138,"x_max":782,"o":"m 781 697 q 782 688 782 694 l 782 561 l 782 313 l 782 93 l 782 40 q 754 1 782 8 q 719 0 743 0 l 661 0 q 632 13 643 0 q 622 29 625 19 q 620 38 621 32 q 618 47 619 44 q 586 19 607 32 q 561 10 575 14 q 537 3 547 6 q 510 1 526 1 q 485 0 493 0 q 458 0 478 0 q 432 0 438 0 l 188 0 l 168 0 q 140 22 147 3 q 138 61 138 29 l 138 275 l 138 549 l 138 689 q 156 719 140 710 q 185 724 165 724 l 310 724 q 338 722 333 724 q 354 711 350 718 q 364 708 358 706 q 429 722 393 726 q 495 671 475 714 q 494 586 515 628 q 433 542 475 549 q 400 540 417 536 q 381 546 394 540 q 372 550 378 546 q 363 554 365 554 l 363 507 q 367 474 363 481 q 374 463 369 467 q 385 458 378 460 q 396 456 393 456 q 411 456 399 456 l 422 456 q 504 454 476 456 q 572 431 539 450 q 599 411 592 419 q 617 382 601 408 l 617 479 l 617 625 l 617 675 q 619 699 617 692 q 628 715 622 708 q 645 723 635 721 q 663 725 656 725 q 683 724 669 725 q 700 724 696 724 q 718 724 704 724 q 738 724 732 725 q 755 722 744 724 q 771 713 765 719 q 781 697 776 707 m 381 631 q 388 610 379 619 q 408 599 397 601 q 441 615 429 594 q 439 651 453 635 q 403 661 425 668 q 387 649 394 658 q 381 631 379 640 m 533 233 q 507 288 536 264 q 447 307 494 297 q 389 308 422 311 q 363 274 363 307 l 363 197 q 375 154 363 164 q 424 147 383 147 q 476 153 453 147 q 521 182 503 157 q 533 233 533 199 z "},"":{"ha":833,"x_min":139,"x_max":754,"o":"m 751 242 q 751 193 754 217 q 651 29 742 75 q 478 0 599 0 l 197 0 l 174 0 q 140 24 147 0 q 139 71 139 29 l 139 340 l 139 628 q 139 647 139 635 q 139 669 139 658 q 139 688 139 679 q 154 717 142 710 q 188 722 163 722 l 324 722 q 354 711 344 722 q 363 706 360 706 q 364 707 364 706 l 367 708 q 372 712 368 710 q 378 715 376 714 q 471 704 426 735 q 501 663 490 689 q 506 613 511 638 q 483 569 500 589 q 444 544 465 550 q 407 539 424 538 q 386 544 400 539 q 374 549 382 544 l 369 551 q 364 554 365 554 l 364 486 q 375 463 365 472 q 399 454 385 454 q 524 453 503 454 q 639 425 596 447 q 721 350 699 393 q 751 242 751 297 m 383 626 q 392 607 382 615 q 414 599 403 599 q 444 619 435 599 q 438 654 454 639 q 400 660 421 669 q 383 626 383 651 m 536 228 q 531 256 532 251 q 513 282 526 271 q 456 306 493 303 q 394 308 436 308 q 364 275 367 308 l 364 208 q 372 158 364 169 q 418 147 381 147 q 471 150 454 147 q 518 176 506 158 q 532 201 526 190 q 533 207 532 203 q 535 214 535 211 q 536 228 535 222 z "},"":{"ha":833,"x_min":58,"x_max":776,"o":"m 774 403 q 772 313 776 365 q 711 138 761 214 q 564 25 656 56 q 381 1 472 -4 q 288 11 328 4 q 201 42 251 19 q 74 168 122 78 q 60 206 58 197 q 85 232 63 226 q 194 263 111 240 q 203 265 196 263 q 211 267 210 267 q 219 269 213 268 q 228 271 225 271 q 235 271 231 271 q 243 270 240 271 q 250 267 246 269 q 258 263 254 265 q 264 257 261 261 q 277 238 269 251 q 288 221 285 225 q 319 189 296 207 q 403 168 349 168 q 488 192 457 168 q 538 265 524 218 q 529 300 544 288 q 500 306 522 306 l 375 306 q 347 311 356 306 q 329 343 329 319 q 329 361 329 351 q 329 382 329 371 q 329 399 329 393 q 342 432 329 421 q 371 440 353 440 l 429 440 l 493 440 q 524 443 517 440 q 522 518 556 456 q 453 572 496 558 q 364 576 410 585 q 288 529 318 568 q 258 501 272 508 q 228 504 250 499 q 176 524 217 508 q 114 549 136 540 q 86 563 94 554 q 85 599 71 578 q 228 718 136 682 q 410 747 304 747 q 596 708 517 747 q 672 656 643 685 q 704 621 694 633 q 728 585 714 610 q 774 403 769 514 m 450 656 q 444 679 453 661 q 425 692 438 688 q 391 679 404 699 q 389 642 378 660 q 425 628 401 624 q 443 638 435 629 q 450 656 451 646 z "},"":{"ha":833,"x_min":43,"x_max":840,"o":"m 838 426 q 839 339 840 368 q 800 160 832 231 q 689 31 763 71 q 600 3 651 10 q 557 0 569 0 l 511 4 q 358 78 414 11 q 313 149 329 114 q 283 229 299 178 q 278 255 281 236 q 270 285 275 274 q 253 303 265 297 q 217 297 232 315 q 208 267 208 285 l 208 56 q 172 13 208 14 q 79 13 125 10 q 43 51 43 15 l 43 107 l 43 346 l 43 604 l 43 682 q 51 722 43 713 q 81 735 63 735 l 138 735 q 153 735 140 735 q 171 735 165 736 q 185 733 176 735 q 199 725 194 731 q 207 711 204 719 q 208 683 208 707 l 208 625 l 208 519 q 217 490 208 499 q 254 483 229 478 q 275 499 268 488 q 288 529 282 510 q 294 554 293 549 q 310 594 303 582 q 320 614 313 601 q 331 632 328 626 q 332 639 332 636 l 332 643 l 332 657 q 347 697 332 674 q 422 733 372 733 q 436 732 432 733 q 446 729 442 729 q 453 733 449 729 q 473 738 458 735 q 496 743 488 742 q 585 746 543 750 q 675 724 628 744 q 796 601 751 690 q 838 426 833 525 m 433 622 q 438 626 435 624 q 442 629 440 628 q 447 642 444 631 q 446 663 450 649 q 415 682 438 683 q 385 660 392 681 q 394 624 378 638 q 433 622 417 607 m 669 383 q 669 397 669 388 q 668 411 668 406 q 576 578 661 564 q 483 550 517 589 q 443 451 453 518 q 439 349 436 411 q 454 246 442 278 q 479 201 465 221 q 524 172 496 181 q 618 190 576 156 q 661 282 654 222 q 669 383 669 349 z "},"":{"ha":833,"x_min":57,"x_max":756,"o":"m 754 701 q 756 669 756 699 l 756 493 l 756 242 l 756 58 q 756 49 756 56 q 756 36 756 42 q 756 26 756 31 q 732 3 754 8 q 706 0 724 0 l 592 0 q 536 19 546 0 q 532 40 532 26 l 532 81 l 532 201 q 533 222 532 208 q 533 246 533 235 q 532 267 533 257 q 522 294 532 292 q 510 294 519 296 q 500 293 501 293 q 439 257 463 289 q 406 200 435 250 q 365 122 396 182 q 315 32 333 63 q 264 0 297 3 l 175 0 l 81 0 q 58 14 63 0 q 64 36 57 17 q 108 122 79 64 q 153 208 138 181 q 189 260 158 219 q 213 285 196 268 q 236 303 217 290 q 244 306 238 303 q 256 311 251 308 q 261 318 261 314 q 256 325 261 322 q 242 331 251 328 l 233 333 q 169 372 194 347 l 154 385 q 149 393 153 388 q 143 401 146 399 q 124 431 135 411 q 106 507 106 469 q 111 581 106 556 q 143 647 118 613 q 274 717 186 701 q 406 724 310 724 l 629 724 l 714 724 q 729 722 725 724 q 754 701 743 721 m 385 653 q 390 632 378 644 q 407 618 396 622 q 441 629 428 611 q 444 667 454 647 q 410 681 432 686 q 392 671 400 679 q 385 653 383 663 m 532 538 q 493 571 528 571 l 415 571 q 358 558 383 571 q 329 513 335 544 q 342 460 325 485 q 388 431 357 438 q 439 425 404 425 l 478 425 l 506 425 q 532 464 532 432 l 532 538 z "},"":{"ha":833,"x_min":136,"x_max":739,"o":"m 738 157 q 739 143 739 156 l 739 111 l 739 35 q 731 3 739 8 q 713 0 726 0 l 611 0 l 279 0 l 169 0 q 136 18 139 0 l 136 89 l 136 232 l 136 567 l 136 675 q 136 682 136 676 q 136 689 136 688 q 137 695 136 690 q 138 702 138 700 q 141 708 139 704 q 147 713 143 711 q 154 714 150 714 l 186 714 q 203 719 200 714 q 203 733 206 724 q 197 754 200 740 q 209 806 192 781 q 254 835 226 831 q 306 825 282 839 q 336 785 329 811 q 335 738 342 756 q 331 732 333 736 q 326 724 328 728 q 325 718 324 721 q 342 714 328 710 q 347 722 343 714 q 350 729 347 725 q 354 735 353 733 q 372 754 361 746 q 421 774 394 774 q 472 758 446 775 q 493 740 486 749 q 500 728 499 732 l 504 715 q 515 713 508 713 q 524 717 522 713 q 515 736 525 721 q 514 788 506 763 q 549 828 525 814 q 601 833 571 840 q 642 803 626 828 q 653 754 657 779 q 644 731 651 743 q 644 717 642 719 q 658 714 646 714 l 697 714 q 728 699 725 714 q 729 683 729 692 q 728 663 729 674 q 728 646 728 651 l 728 575 q 711 554 728 556 l 679 554 l 610 554 l 443 554 l 388 554 q 363 549 368 554 q 358 535 358 544 l 358 501 l 358 467 q 364 451 358 458 q 388 449 368 449 l 447 449 l 614 449 l 672 449 q 697 442 690 449 q 701 401 701 438 l 701 325 q 699 311 701 315 q 685 303 694 303 l 656 303 l 499 303 l 421 303 q 408 303 417 303 q 391 303 399 303 q 378 303 383 303 q 358 285 360 300 l 358 225 l 358 190 q 361 176 358 181 q 383 168 367 168 l 511 168 l 674 168 l 718 168 q 738 157 736 168 m 390 696 q 397 673 389 685 q 417 660 406 661 q 451 676 439 657 q 451 713 464 694 q 417 725 438 732 q 399 714 408 724 l 397 711 q 393 704 394 707 q 392 700 393 703 q 390 696 392 697 z "},"":{"ha":833,"x_min":0,"x_max":0,"o":""},"":{"ha":833,"x_min":119,"x_max":724,"o":"m 449 1 q 428 1 442 1 q 407 0 414 0 q 236 61 313 4 q 136 203 160 119 q 121 296 122 251 q 136 386 119 338 q 238 529 165 474 q 413 589 307 582 q 494 578 453 592 q 579 540 540 564 q 690 399 656 489 q 701 222 724 315 q 610 74 683 140 q 538 26 572 40 q 449 1 493 10 m 417 72 q 437 79 428 71 q 449 100 446 88 q 431 133 451 122 q 393 131 411 144 q 385 92 376 117 q 417 72 393 72 z "}}}
